<?xml version="1.0" encoding="utf-8"?>
<!-- Generator: Adobe Illustrator 18.1.1, SVG Export Plug-In . SVG Version: 6.00 Build 0)  -->
<!DOCTYPE svg PUBLIC "-//W3C//DTD SVG 1.1//EN" "http://www.w3.org/Graphics/SVG/1.1/DTD/svg11.dtd">
<svg version="1.1" xmlns="http://www.w3.org/2000/svg" xmlns:xlink="http://www.w3.org/1999/xlink" x="0px" y="0px"
	 viewBox="0 0 256 183" enable-background="new 0 0 256 183" xml:space="preserve">
	<style type="text/css">
		path {
			fill: #fff;
		}
	</style>
	<path d="M218.7,170h29.1c1.7,0,2.6-1.9,1.6-3.2l-14.2-18.7L218.7,170z"/>
	<path d="M123.1,10C120.7,13,7.8,163.4,5,167.5c-0.6,0.9,0.2,2.5,1.3,2.5c4.8,0,117.4,0,124,0c-3.7-5.8-6.8-13.8-9.1-23
		c-15.2,0-69,0-71.4,0c-1.3,0-2.3-1.8-1.6-2.8c3.2-4.6,18-24.2,21.1-28.3c1.3-1.7,2.4-1.9,3.7-1.9c3.6,0,34.4,0,44,0
		c0-8,1.2-14,2.4-20c-8.8,0-24.1,0-29.7,0c-2.2,0-2.4-1.8-1.4-3.1c3.9-4.9,35.1-47.1,36.3-48.9c1-1.6,2.3-1.5,3.4,0
		c1.2,1.7,4.4,5.1,7.1,9.2c4.2-7.4,7.4-12.5,11.8-19.2c-5-6.6-11.4-14.8-17-22.1C128.1,7.6,125.1,7.5,123.1,10z"/>
	<path d="M231.7,143.8c-4.6-6.8-73.3-96.9-78.6-103.6c-2.2-2.8-3.4-2.7-5.4,0.5c-27.4,43.9-32.3,89.3-13,126.2c1,1.9,1.8,3,4.6,3
		c0,0,67.2,0,72.4,0C217.2,162.8,226.7,150.3,231.7,143.8z M205.8,147c-4,0-53.1,0-53.1,0c-1.4,0-1.8-0.7-2.3-1.7
		c-9.7-18.6-8.1-45.8,2.2-68c0.8-1.7,1.6-1.7,2.7-0.3c2.6,3.4,49.2,65,51.5,68.4C207.2,146,206.5,147,205.8,147z"/>
</svg>
