<?xml version="1.0" encoding="utf-8"?>
<!-- Generator: Adobe Illustrator 18.1.1, SVG Export Plug-In . SVG Version: 6.00 Build 0)  -->
<!DOCTYPE svg PUBLIC "-//W3C//DTD SVG 1.1//EN" "http://www.w3.org/Graphics/SVG/1.1/DTD/svg11.dtd">
<svg version="1.1" id="icon_x5F_animator" xmlns="http://www.w3.org/2000/svg" xmlns:xlink="http://www.w3.org/1999/xlink" x="0px"
	 y="0px" viewBox="0 0 256 256" enable-background="new 0 0 256 256" xml:space="preserve">
<style type="text/css">
	.bg {
	  fill: #eee;
	}

	.frame path {
	  fill: #000;
	}

	.frames > * {
	  opacity: 0;
	  animation-duration: 0.25s;
	  animation-iteration-count: infinite;
	  animation-timing-function: steps(1);
	}

	@-webkit-keyframes frames-1 {
	  0% {
	    opacity: 1;
	  }
	  25% {
	    opacity: 0;
	  }
	}
	@-moz-keyframes frames-1 {
	  0% {
	    opacity: 1;
	  }
	  25% {
	    opacity: 0;
	  }
	}
	@-o-keyframes frames-1 {
	  0% {
	    opacity: 1;
	  }
	  25% {
	    opacity: 0;
	  }
	}
	@keyframes frames-1 {
	  0% {
	    opacity: 1;
	  }
	  25% {
	    opacity: 0;
	  }
	}

	.frames > :nth-child(1) {
	  -webkit-animation-name: frames-1;
	  -moz-animation-name: frames-1;
	  -o-animation-name: frames-1;
	  animation-name: frames-1;
	}

	@-webkit-keyframes frames-2 {
	  25% {
	    opacity: 1;
	  }
	  50% {
	    opacity: 0;
	  }
	}
	@-moz-keyframes frames-2 {
	  25% {
	    opacity: 1;
	  }
	  50% {
	    opacity: 0;
	  }
	}
	@-o-keyframes frames-2 {
	  25% {
	    opacity: 1;
	  }
	  50% {
	    opacity: 0;
	  }
	}
	@keyframes frames-2 {
	  25% {
	    opacity: 1;
	  }
	  50% {
	    opacity: 0;
	  }
	}

	.frames > :nth-child(2) {
	  -webkit-animation-name: frames-2;
	  -moz-animation-name: frames-2;
	  -o-animation-name: frames-2;
	  animation-name: frames-2;
	}

	@-webkit-keyframes frames-3 {
	  50% {
	    opacity: 1;
	  }
	  75% {
	    opacity: 0;
	  }
	}
	@-moz-keyframes frames-3 {
	  50% {
	    opacity: 1;
	  }
	  75% {
	    opacity: 0;
	  }
	}
	@-o-keyframes frames-3 {
	  50% {
	    opacity: 1;
	  }
	  75% {
	    opacity: 0;
	  }
	}
	@keyframes frames-3 {
	  50% {
	    opacity: 1;
	  }
	  75% {
	    opacity: 0;
	  }
	}

	.frames > :nth-child(3) {
	  -webkit-animation-name: frames-3;
	  -moz-animation-name: frames-3;
	  -o-animation-name: frames-3;
	  animation-name: frames-3;
	}

	@-webkit-keyframes frames-4 {
	  75% {
	    opacity: 1;
	  }
	  100% {
	    opacity: 0;
	  }
	}
	@-moz-keyframes frames-4 {
	  75% {
	    opacity: 1;
	  }
	  100% {
	    opacity: 0;
	  }
	}
	@-o-keyframes frames-4 {
	  75% {
	    opacity: 1;
	  }
	  100% {
	    opacity: 0;
	  }
	}
	@keyframes frames-4 {
	  75% {
	    opacity: 1;
	  }
	  100% {
	    opacity: 0;
	  }
	}

	.frames > :nth-child(4) {
	  -webkit-animation-name: frames-4;
	  -moz-animation-name: frames-4;
	  -o-animation-name: frames-4;
	  animation-name: frames-4;
	}
</style>
<circle class="bg" cx="128" cy="128" r="128"/>
<g class="frames">
	<g class="frame" id="frame_0">
		<path d="M90,66.9c-1.5-4.5-4.5-9.4-8.2-11.5c-1.3-0.7-2.8-1.2-4.4-1.3c-11.9-2.8-30,8.1-27.8,19.6c-1.2,7.8,2.5,15,8.3,18.9
			c0.1,0.1,0.2,0.2,0.3,0.2c4.6,2.9,10.6,3.8,16.6,1.3c6.5-2.7,12.6-9,15.2-15.5C90.7,76.6,92,69.3,90,66.9z"/>
		<path d="M90.6,98.5c-1.6,6.2-3.7,12.3-6.4,18.2c-1.2,2.6-2.5,5.1-4,7.6c-1.2,2-3,6.5-5.4,7.3c-4.5,1.4-14-6.2-17.6-8.5
			c-4-2.5-7.9-5.2-11.7-8c1.8-1.8,2.8-4.8,1.3-7.2c-1.2-2-3.6-2.3-5.4-1c-2.9,0.2-4.8,3.5-4.1,6c0,1.8,0.8,3.6,2.5,4.5
			c1.3,0.7,2.5,0.5,3.5-0.1c5,3.7,10,7.1,15.3,10.4c3.8,2.3,12.9,9.2,17.9,6.9c1.8-0.9,2.9-3.3,4-5c2-3.1,3.8-6.4,5.5-9.7
			c3.2-6.5,5.7-13.4,7.5-20.4C93.9,97.4,91,96.6,90.6,98.5z"/>
		<path d="M227.8,141c-0.6-1.2-1.5-2.2-2.5-3c-0.1-0.4-0.4-0.7-0.9-0.9c-2.2-0.9-4.4-1.5-6.6-1.9c-3.1-0.9-6.2-1.8-9.3-2.8
			c-2.9-0.9-5.4-1.8-8-0.7c-0.7-0.1-1.5,0.3-1.7,1c-0.5,0.5-0.5,1.2-0.3,1.7c-0.1,2.6,1.2,4.9,1.8,7.4c0.2,0.8,0.3,1.5,0.4,2
			c0.1,0.7,0.5,1.1,1,1.3c-0.2,0.2-0.3,0.4-0.5,0.5c-1.2,1.4-2.5,2.8-3.7,4.2c-2.2,2.4-4.4,4.7-6.7,6.9c-5,4.8-10.5,9.1-16.8,12.1
			c-3.7,1.7-9.7,4.9-13.3,1.1c-2.4-2.6-3.9-6.8-5.6-9.8c-4.2-7.4-8.3-14.8-12.5-22.2c-0.5-0.9-1.6-0.9-2.2-0.4
			c-9.2-4.6-16.1-12.7-22.7-20.4c-7.3-8.4-13.9-17.3-20.1-26.6c0.4-0.3,0.7-0.8,0.6-1.5c-2.3-16,5.9-29,17.2-39.5
			c2.3-2.2,4.8-4.3,7.2-6.3c3.9-3.3,6.3-1.9,9.9,0.6c4.2,3,8.7,5.3,13.5,7.1c-0.3,0.6-0.5,1.2-0.6,2c-0.2,3.2,3.1,5.5,6.1,5
			c3-0.5,6.3-3.7,6.1-7c-0.1-3.4-3.7-3.5-6.4-2.6c-0.8,0-1.7,0.1-2.5,0.4c-4.1-1.5-8.1-3.3-11.8-5.6c-2.8-1.7-6.2-6.1-9.6-6.3
			c-2.2-0.1-4,2-5.6,3.3c-3.1,2.6-6.1,5.1-9.1,7.9c-11.7,11.1-19.5,24.7-17.4,41.3c-0.8,0.3-1.3,1.2-0.7,2.1
			c6.4,9.7,13.4,19.1,21,27.9c6.4,7.4,13,15.1,21.6,20c-7.2,3.4-14.2,7.2-21,11.5c-5.9,3.7-12.1,7.7-16.8,13c-0.5,0-1,0.2-1.3,0.7
			c-2.8,4.9-5.5,9.8-8,14.8c-0.2,0.4-0.2,0.7-0.1,1c-0.8,2-1.5,4-2.2,6c-1.8,5-4,10.4-5.1,15.8c-0.1,0.1-0.3,0.2-0.4,0.3
			c-2.9,3.8-6.8,6.6-11.3,8.3c-0.1,0-0.2,0.1-0.4,0.2c-0.6-0.3-1.1-0.5-1.2-0.6c-3.8-2.4-7.1-6-8-10.4c0.7-0.4,1.1-1.1,0.5-1.9
			c-0.3-0.4-0.6-0.8-0.9-1.3c-0.8-1.1-2.8-0.8-2.8,0.8c-0.1,7.1,5.1,13,11.1,16.2c3.3,1.8,14.1,7.2,16.7,2.7c0.5-0.8,0.1-1.6-0.5-2
			c0.1-0.9,0-1.9-0.5-2.8c0-0.1,0-0.3,0-0.4c-0.7-8.2,2.9-16.6,5.6-24.2c1.1-3.1,2.3-6.2,3.6-9.2c0,0,0,0,0,0c1.5-3,3.1-5.9,4.8-8.8
			c0,0,0,0,0.1,0c1-1.4,2-2.7,3.2-4c10.2-10.7,25.3-18.1,38.6-24.2c5.5,9.8,10.7,19.8,16.5,29.3c1.6,2.7,3.5,5,6.9,4.9
			c3.8-0.2,7.8-2,11.2-3.6c7.9-3.8,14.7-9.7,20.8-16c3.3-3.4,6.6-7,9.6-10.7c4.2-3.2,7.9-7.6,13.7-5.9c0.1,0,0.2,0,0.2,0
			c0.2,0.1,0.3,0.1,0.5,0.2c0.1,0.1,0.2,0.2,0.4,0.2c0.9,0.4,1.9,0.5,2.7,1c0.8,0.5,1.4,1.3,1.8,2.1
			C226.1,144.3,228.7,142.7,227.8,141z"/>
	</g>
	<g class="frame" id="frame_1">
		<g>
			<path d="M96.7,83.4c0.5-0.8,1-1.6,1.4-2.4c0.8-2.4,1.7-8.9-0.2-11.1c-1.5-4.5-4.5-9.4-8.2-11.5c-1.3-0.7-2.8-1.2-4.4-1.3
				c-11.9-2.8-30,8.1-27.8,19.6c-1.2,7.8,2.5,15,8.3,18.9c0.1,0.1,0.2,0.2,0.3,0.2c4.6,2.9,10.6,3.8,16.6,1.3
				c4.9-2.1,9.7-6.2,12.8-10.9C95.9,85.2,96.2,84.3,96.7,83.4z"/>
			<path d="M137.5,111.7c-0.3-0.5-0.6-0.9-1-1.2c-0.9-1.1-2.2-1.7-3.6-1.8c0.1-0.2,0.1-0.5,0-0.8c-2.2-8.1-9.7-21.9-19.8-20.8
				c-6.7,0.7-13.5,3.3-19.9,6.6c0.5,1,0.7,2.2,0.5,3.4c4.5-2.3,9.2-4.2,14.1-5.6c2.5-0.7,5.4-1.8,8-1.2c2.6,0.6,4.8,2.9,6.6,4.8
				c3.6,3.9,6.1,8.5,7.5,13.6c0,0.1,0.1,0.2,0.1,0.3c0,0,0,0,0,0c-2.4,0.8-5.1,2.3-5.6,5c-0.2,1.3,0.1,2.6,0.8,3.7
				c0.4,1.3,1.6,2.4,3,2.6c0.5,0.1,1,0.1,1.4,0C134.6,120.8,140.4,116.6,137.5,111.7z"/>
			<path d="M178.6,201.4c-0.3-2.3-0.9-4.5-1.6-6.7c-0.7-3.1-1.4-6.3-2.1-9.4c-0.7-3-1.1-5.6-3.3-7.3c-0.3-0.7-1-1.1-1.7-1
				c-0.7-0.2-1.3,0.1-1.6,0.6c-2.3,1.2-3.7,3.4-5.6,5.2c-0.6,0.5-1.2,1-1.5,1.3c-0.3,0.2-0.5,0.5-0.6,0.9c-0.1,0-0.2,0-0.3,0
				c-1.5,0.4-2.9,0.9-4.3,1.5c-0.2,0.1-0.3,0.2-0.4,0.3c-2.9,0.8-6,1.7-8.8,1.7c-7-0.1-6.3-5.5-5.5-10.2c1.8-10.2,2.3-20.5,1.7-30.7
				c0.1-0.1,0.1-0.2,0.2-0.4c1-4.6-1.3-9.2-5.4-11.3c-1.1-1.1-2.3-2-3.7-2.9c-0.2-0.3-0.5-0.6-0.7-0.8c-2.6-1.4-5.2-2.9-7.7-4.6
				c0,0,0,0.1,0.1,0.1c-2.9-1.9-5.7-3.9-8.5-6.1c-2.5-2-4.9-4.1-7.2-6.2c-0.1-0.4-0.3-0.9-0.4-1.3c-1.3-0.9-2.6-1.9-3.8-3.1
				c0,0.2,0.1,0.4,0.1,0.5c-5.4-5.3-10.5-10.9-15.5-16.6c-1.3-1.5-3.4,0.7-2.1,2.1c5.9,6.8,12.1,13.5,18.7,19.7c0,0.1,0,0.3,0.1,0.4
				c0.2,0.3,0.5,0.5,0.7,0.7c1.2,0.3,2.1,1.1,2.7,2c1.1,0.7,2.1,1.5,3,2.5c3.5,2.9,7.1,5.6,10.8,8.1c1.3,0.8,2.8,1.7,4.3,2.5
				c0.8,0.7,1.7,1.4,2.5,2.1c0.1,0.3,0.3,0.6,0.6,0.8c1.6,1.1,1.8,3.3,1.4,5.5l0,0c0,0-0.2,0.1-0.2,0.1c-0.3,1.7-0.8,3.4-1.8,4.6v0
				c0,2.7-1.7,5.1-2.8,7.6c-0.1,0.3-0.1,0.5-0.3,0.7c0,0,0.1,0,0.1,0c-7.2,12.3-14.9,24.4-16.3,38.8c-0.8,8.2,0.7,16.7,4.8,24
				c0.1,0.2,0.2,0.4,0.4,0.6c-0.1,0-0.2,0-0.3,0c-1,4-3,7.6-5.8,10.7c-0.1,0.1-0.2,0.2-0.2,0.3c-0.7,0-1.2,0-1.4,0
				c-4.5-0.4-9-2.1-11.8-5.6c0.4-0.6,0.4-1.5-0.5-1.9c-0.5-0.2-0.9-0.5-1.4-0.7c-1.3-0.6-2.9,0.5-2.1,2c3.2,6.4,10.5,9.2,17.3,9.3
				c3.7,0.1,15.9,0,16.1-5.2c0,0,0,0,0,0c-0.3-0.5-0.6-0.9-0.9-1.4c-0.2-0.1-0.3-0.1-0.5-0.1c-0.3-0.9-0.8-1.7-1.7-2.2
				c0-0.1-0.1-0.3-0.2-0.4c-0.5-0.8-1-1.7-1.4-2.7c-1.2-1.5-2.1-3.1-3-4.8c0-0.1,0-0.1-0.1-0.2c-0.1,0-0.2,0-0.2,0
				c-1-1.8-1.8-3.7-2.4-5.7c-2.7-8.4-2.2-17.4,0.3-25.7c2.5-8.2,6.9-15.3,11.4-22.6c3.7-6.1,7-12.3,9.9-18.8c0.1,0,0.2-0.1,0.3-0.1
				c0.3,0.4,0.8,0.6,1.3,0.5c0.7,7.7,0.9,15.5,0.2,23.3c-0.4,4.7-1.2,9.2-1.9,13.8c-0.4,2.5-0.7,5.2,0.5,7.6c2.5,5,8.4,4.3,13,3.3
				c2.2-0.5,4.4-1,6.6-1.5c1.2,0,2.3-0.2,3.4-0.4c0.5,0.1,1,0.2,1.4,0.3c4.8,2.1,10.5,3.1,11.9,9c0,0.1,0.1,0.2,0.1,0.2
				c0,0.2,0.1,0.3,0.1,0.5c0,0.1,0,0.3,0,0.4c0.1,1,0.5,1.9,0.4,2.9c-0.1,1-0.4,1.8-1,2.6c-1.1,1.6,1.5,3.1,2.6,1.5
				c0.7-1.1,1.2-2.3,1.3-3.7C178.5,202.3,178.6,201.9,178.6,201.4z"/>
			<path d="M95.4,121c-1.6-6.6-3.5-13.1-5.8-19.6c-0.6-1.8-3.5-1-2.9,0.8c1.7,5,3.3,10,4.6,15.1c1.2,4.4,3.2,9.7,2.3,14.2
				c-4.5,6.4-9,12.6-14.6,17.8c0,0-0.1,0-0.1,0c-0.7,0.7-1.5,1.4-2.2,2c-0.7,0.6-1.5,1.2-2.3,1.8c-0.1,0.1-0.2,0.2-0.3,0.3
				c-1.2-1.6-3-2.6-5.1-2.5c-1.8,0.1-3,1-3.9,2.2c-0.5-0.2-1.1-0.2-1.6,0.3c-1.4,1.4-1.9,3.3-1.6,5.2c-0.2,0.9-0.1,1.9,0.3,2.9
				c1.3,3.1,4.6,4.3,7.7,3.3c2.3-0.8,4.1-2.6,4.9-4.8c0.7-1.1,0.9-2.3,0.6-3.5c1-0.8,1.9-1.7,2.8-2.5c7.3-5.9,12.6-13.3,18.1-21
				c0.2-0.1,0.4-0.3,0.6-0.4C97.7,128.8,96.2,124.5,95.4,121z"/>
		</g>
		<g>
			<path d="M96.7,83.4c0.5-0.8,1-1.6,1.4-2.4c0.8-2.4,1.7-8.9-0.2-11.1c-1.5-4.5-4.5-9.4-8.2-11.5c-1.3-0.7-2.8-1.2-4.4-1.3
				c-11.9-2.8-30,8.1-27.8,19.6c-1.2,7.8,2.5,15,8.3,18.9c0.1,0.1,0.2,0.2,0.3,0.2c4.6,2.9,10.6,3.8,16.6,1.3
				c4.9-2.1,9.7-6.2,12.8-10.9C95.9,85.2,96.2,84.3,96.7,83.4z"/>
			<path d="M137.5,111.7c-0.3-0.5-0.6-0.9-1-1.2c-0.9-1.1-2.2-1.7-3.6-1.8c0.1-0.2,0.1-0.5,0-0.8c-2.2-8.1-9.7-21.9-19.8-20.8
				c-6.7,0.7-13.5,3.3-19.9,6.6c0.5,1,0.7,2.2,0.5,3.4c4.5-2.3,9.2-4.2,14.1-5.6c2.5-0.7,5.4-1.8,8-1.2c2.6,0.6,4.8,2.9,6.6,4.8
				c3.6,3.9,6.1,8.5,7.5,13.6c0,0.1,0.1,0.2,0.1,0.3c0,0,0,0,0,0c-2.4,0.8-5.1,2.3-5.6,5c-0.2,1.3,0.1,2.6,0.8,3.7
				c0.4,1.3,1.6,2.4,3,2.6c0.5,0.1,1,0.1,1.4,0C134.6,120.8,140.4,116.6,137.5,111.7z"/>
			<path d="M178.6,201.4c-0.3-2.3-0.9-4.5-1.6-6.7c-0.7-3.1-1.4-6.3-2.1-9.4c-0.7-3-1.1-5.6-3.3-7.3c-0.3-0.7-1-1.1-1.7-1
				c-0.7-0.2-1.3,0.1-1.6,0.6c-2.3,1.2-3.7,3.4-5.6,5.2c-0.6,0.5-1.2,1-1.5,1.3c-0.3,0.2-0.5,0.5-0.6,0.9c-0.1,0-0.2,0-0.3,0
				c-1.5,0.4-2.9,0.9-4.3,1.5c-0.2,0.1-0.3,0.2-0.4,0.3c-2.9,0.8-6,1.7-8.8,1.7c-7-0.1-6.3-5.5-5.5-10.2c1.8-10.2,2.3-20.5,1.7-30.7
				c0.1-0.1,0.1-0.2,0.2-0.4c1-4.6-1.3-9.2-5.4-11.3c-1.1-1.1-2.3-2-3.7-2.9c-0.2-0.3-0.5-0.6-0.7-0.8c-2.6-1.4-5.2-2.9-7.7-4.6
				c0,0,0,0.1,0.1,0.1c-2.9-1.9-5.7-3.9-8.5-6.1c-2.5-2-4.9-4.1-7.2-6.2c-0.1-0.4-0.3-0.9-0.4-1.3c-1.3-0.9-2.6-1.9-3.8-3.1
				c0,0.2,0.1,0.4,0.1,0.5c-5.4-5.3-10.5-10.9-15.5-16.6c-1.3-1.5-3.4,0.7-2.1,2.1c5.9,6.8,12.1,13.5,18.7,19.7c0,0.1,0,0.3,0.1,0.4
				c0.2,0.3,0.5,0.5,0.7,0.7c1.2,0.3,2.1,1.1,2.7,2c1.1,0.7,2.1,1.5,3,2.5c3.5,2.9,7.1,5.6,10.8,8.1c1.3,0.8,2.8,1.7,4.3,2.5
				c0.8,0.7,1.7,1.4,2.5,2.1c0.1,0.3,0.3,0.6,0.6,0.8c1.6,1.1,1.8,3.3,1.4,5.5l0,0c0,0-0.2,0.1-0.2,0.1c-0.3,1.7-0.8,3.4-1.8,4.6v0
				c0,2.7-1.7,5.1-2.8,7.6c-0.1,0.3-0.1,0.5-0.3,0.7c0,0,0.1,0,0.1,0c-7.2,12.3-14.9,24.4-16.3,38.8c-0.8,8.2,0.7,16.7,4.8,24
				c0.1,0.2,0.2,0.4,0.4,0.6c-0.1,0-0.2,0-0.3,0c-1,4-3,7.6-5.8,10.7c-0.1,0.1-0.2,0.2-0.2,0.3c-0.7,0-1.2,0-1.4,0
				c-4.5-0.4-9-2.1-11.8-5.6c0.4-0.6,0.4-1.5-0.5-1.9c-0.5-0.2-0.9-0.5-1.4-0.7c-1.3-0.6-2.9,0.5-2.1,2c3.2,6.4,10.5,9.2,17.3,9.3
				c3.7,0.1,15.9,0,16.1-5.2c0,0,0,0,0,0c-0.3-0.5-0.6-0.9-0.9-1.4c-0.2-0.1-0.3-0.1-0.5-0.1c-0.3-0.9-0.8-1.7-1.7-2.2
				c0-0.1-0.1-0.3-0.2-0.4c-0.5-0.8-1-1.7-1.4-2.7c-1.2-1.5-2.1-3.1-3-4.8c0-0.1,0-0.1-0.1-0.2c-0.1,0-0.2,0-0.2,0
				c-1-1.8-1.8-3.7-2.4-5.7c-2.7-8.4-2.2-17.4,0.3-25.7c2.5-8.2,6.9-15.3,11.4-22.6c3.7-6.1,7-12.3,9.9-18.8c0.1,0,0.2-0.1,0.3-0.1
				c0.3,0.4,0.8,0.6,1.3,0.5c0.7,7.7,0.9,15.5,0.2,23.3c-0.4,4.7-1.2,9.2-1.9,13.8c-0.4,2.5-0.7,5.2,0.5,7.6c2.5,5,8.4,4.3,13,3.3
				c2.2-0.5,4.4-1,6.6-1.5c1.2,0,2.3-0.2,3.4-0.4c0.5,0.1,1,0.2,1.4,0.3c4.8,2.1,10.5,3.1,11.9,9c0,0.1,0.1,0.2,0.1,0.2
				c0,0.2,0.1,0.3,0.1,0.5c0,0.1,0,0.3,0,0.4c0.1,1,0.5,1.9,0.4,2.9c-0.1,1-0.4,1.8-1,2.6c-1.1,1.6,1.5,3.1,2.6,1.5
				c0.7-1.1,1.2-2.3,1.3-3.7C178.5,202.3,178.6,201.9,178.6,201.4z"/>
			<path d="M95.4,121c-1.6-6.6-3.5-13.1-5.8-19.6c-0.6-1.8-3.5-1-2.9,0.8c1.7,5,3.3,10,4.6,15.1c1.2,4.4,3.2,9.7,2.3,14.2
				c-4.5,6.4-9,12.6-14.6,17.8c0,0-0.1,0-0.1,0c-0.7,0.7-1.5,1.4-2.2,2c-0.7,0.6-1.5,1.2-2.3,1.8c-0.1,0.1-0.2,0.2-0.3,0.3
				c-1.2-1.6-3-2.6-5.1-2.5c-1.8,0.1-3,1-3.9,2.2c-0.5-0.2-1.1-0.2-1.6,0.3c-1.4,1.4-1.9,3.3-1.6,5.2c-0.2,0.9-0.1,1.9,0.3,2.9
				c1.3,3.1,4.6,4.3,7.7,3.3c2.3-0.8,4.1-2.6,4.9-4.8c0.7-1.1,0.9-2.3,0.6-3.5c1-0.8,1.9-1.7,2.8-2.5c7.3-5.9,12.6-13.3,18.1-21
				c0.2-0.1,0.4-0.3,0.6-0.4C97.7,128.8,96.2,124.5,95.4,121z"/>
		</g>
	</g>
	<g class="frame" id="frame_2">
		<g>
			<path d="M109,61.9c-1.5-4.5-4.5-9.4-8.2-11.5c-1.3-0.7-2.8-1.2-4.4-1.3c-11.9-2.8-30,8.1-27.8,19.6c-1.2,7.8,2.5,15,8.3,18.9
				c0.1,0.1,0.2,0.2,0.3,0.2c4.6,2.9,10.6,3.8,16.6,1.3c6.5-2.7,12.6-9,15.2-15.5C109.7,71.6,111,64.3,109,61.9z"/>
			<path d="M168.6,216C168.6,216,168.6,216,168.6,216c-0.5-0.3-0.9-0.6-1.4-0.9c-0.2,0-0.3,0-0.5,0.1c-0.6-0.7-1.5-1.1-2.5-1.3
				c-0.1-0.1-0.2-0.2-0.3-0.3c-0.8-0.5-1.6-1.1-2.4-1.8c-1.7-0.8-3.2-1.9-4.7-3c-0.1,0-0.1-0.1-0.1-0.1c0,0,0,0,0,0
				c-1.1-1.2-2-2.6-2.8-4c-1.8-8.2-3.4-16.5-5.1-24.8c-0.1-1.7-0.3-3.3-0.5-4.9c-1.2-8.8-2.8-17.5-4.6-26.1c-1.3-4-3-6.5-4.5-10.6
				c-0.3-0.9-1.2-2.3-1.7-3.2c-2.8-2.3-5.2-4.9-7.5-7.6c1.4-2.5,2.9-5,4.5-7.4c2.2-3.3,4.4-6.7,3.2-10.8c-0.2-0.6-0.6-0.9-1.1-1.1
				c0-0.1-0.1-0.1-0.1-0.2c-1.2-2.2-3-3.9-5.1-5.4c0-0.2,0-0.4,0-0.6c0-4.3-3.4-7.2-7.1-8.8c-6.9-3.1-14.6-5.1-21.8-7.6
				c-0.5-0.2-1-0.1-1.4,0.2c-0.1,0-0.1-0.1-0.2-0.1c-0.1,0-0.1-0.1-0.2-0.1c-1,0.4-1.6,1.8-0.4,2.5c0.4,0.2,0.8,0.5,1.3,0.7
				c5.1,9.7,10.7,19.2,16.9,28.3c0.4,0.6,0.9,1.3,1.3,1.9c-1.1,1.3-2.3,2.4-3.5,3.4c-0.6-0.5-1.3-0.9-2.1-1.1
				c-2.6-0.6-5.1,0.7-7.2,2.3c-4.9,3.6,0.9,9.1,5.4,8.6c2.4-0.3,4.2-2.3,4.8-4.5c0.3-0.6,0.5-1.1,0.5-1.7c0-0.3,0-0.5,0-0.8
				c1.4-1.1,2.7-2.3,3.8-3.6c1.5,2.2,3.1,4.3,4.7,6.3c-0.7,1.3-1.4,2.7-2.1,4l-1.9,3.1c-5-1.3-12,1.5-9.7,7c0.7,1.7,2.2,3.1,4,3.8
				c0.3,0.3,0.6,0.4,1,0.3c1.2,0.3,2.4,0.3,3.6-0.1c0.2-0.1,0.4-0.2,0.6-0.3c0.5-0.1,1-0.3,1.5-0.5c2.8-1.4,4.4-6.2,3.2-9.3
				c-0.1-0.4-0.9,0.9-1.2,0.6c1-2.1,2-4.2,3.1-6.2c1.2,1.4,2.4,2.8,3.8,4c0.1,0.3,0.2,0.6,0.5,0.8c1.5,1.2,1,3.9,0.6,6.2l0,0
				c0,0-0.2,0.1-0.2,0.1c-0.3,1.7-0.8,3.4-1.8,4.6v0c0,2.7-1.7,5.1-2.8,7.6c-0.1,0.3-0.1,0.5-0.3,0.7c0,0,0.1,0,0.1,0
				c-0.6,0.9-1.1,1.9-1.6,2.8c-4.3,5.8-8.3,11.3-8.9,12.3c-0.2,0.3-0.4,0.7-0.6,1.1c-0.4,3.1-0.3,6.2,1.5,8.7
				c0.2,0.2,0.4,0.4,0.6,0.7c1.6,1,3.5,1.9,5.3,2.7c0,0,0,0,0,0c0.2,0.1,0.3,0.1,0.5,0.2c0.2,0.1,0.4,0.2,0.6,0.2
				c0.7,0.4,1.8,0.9,2.8,1.3c0.2,0.1,0.4,0.1,0.6,0.2c0.1,0,0.2,0.1,0.3,0.1c0.1,0,0.1,0,0.2,0.1c0.3,0.3,0.7,0.6,1,0.9
				c3,4.3,7.2,8.2,5.3,13.9c0,0.1,0,0.2,0,0.2c-0.1,0.2-0.1,0.3-0.2,0.5c-0.1,0.1-0.2,0.2-0.2,0.4c-0.4,0.9-0.5,1.8-1.1,2.7
				c-0.6,0.8-1.3,1.3-2.2,1.7c-1.8,0.8-0.4,3.4,1.4,2.7c1.2-0.5,2.2-1.4,3.1-2.4c0.4-0.1,0.7-0.4,0.9-0.8c1-2.1,1.6-4.3,2.2-6.5
				c1.1-3.1,2.1-6.1,3.2-9.2c1-2.9,2-5.3,1.1-8c0.1-0.7-0.2-1.5-0.9-1.7c-0.5-0.5-1.1-0.6-1.7-0.4c-2.6-0.2-5,0.9-7.5,1.5
				c-0.8,0.1-1.5,0.2-2,0.3c-0.3,0-0.5,0.1-0.7,0.3c-0.6-0.1-1.1-0.2-1.7-0.3c-1-0.3-2-0.4-3-0.6c0,0,0,0,0,0
				c-0.9-0.4-1.8-0.9-2.7-1.3c-0.8-0.4-2.3-0.8-2.9-1.4c-0.3-0.4-0.5-0.9-0.7-1.5c2.4-5.1,5.3-9.8,8.3-14.6c1.3-2.1,2.5-4.2,3.7-6.4
				c1.8-2.2,3.8-4.3,5.6-6.5c0.2-0.3,0.4-0.5,0.6-0.8c0.1-0.1,0.2-0.2,0.2-0.3c2.9,11.5,5.3,23.2,7.7,34.9c0.9,7.5,1,14.9,3.8,21.5
				c-0.1,0.2-0.1,0.5,0,0.8c0.7,2.7,1.5,5.6,3.3,7.8c0.8,1,1.9,1.8,3,2.7c0.3,3.3,0,6.6-1,9.8c0,0.1,0,0.3-0.1,0.4
				c-0.6,0.3-1.1,0.5-1.3,0.6c-4.2,1.6-9,2-13.1,0.1c0.1-0.8-0.3-1.5-1.3-1.6c-0.5,0-1,0-1.6,0c-1.4,0-2.3,1.7-1.1,2.7
				c5.6,4.4,13.4,3.8,19.6,1C159.7,226.1,170.6,220.7,168.6,216z M116.2,93.5c4.2,1.4,10.1,2.7,11.5,6.9c-1.7-1-3.4-1.8-4.9-2.7
				l-8.1-4.7L116.2,93.5z M120.7,115.2c-5.2-7.6-10-15.6-14.4-23.7c7.3,4,14.8,7.8,21.5,12.5c0,0.1,0,0.2,0,0.3c-1,4-3.2,8.5-6,12.3
				C121.4,116.1,121,115.7,120.7,115.2z M123.4,119.1c0.6-0.8,1.1-1.6,1.7-2.5c1.8-2.9,4.2-6.8,5.5-10.5c1.8,1.4,3.6,3.3,4,5.6
				c0.1,0.5,0.1,1.1,0,1.6c0,0.2-0.1,0.3-0.1,0.5c-2,2.3-4.6,4.6-5.1,6.8c-0.2,1-0.4,1.9-0.6,2.8c-0.2,0.4-0.5,0.7-0.7,1.1
				c-0.1,0.2-0.2,0.4-0.4,0.7C126.2,123.1,124.8,121.1,123.4,119.1z"/>
		</g>
		<g>
			<path d="M109,61.9c-1.5-4.5-4.5-9.4-8.2-11.5c-1.3-0.7-2.8-1.2-4.4-1.3c-11.9-2.8-30,8.1-27.8,19.6c-1.2,7.8,2.5,15,8.3,18.9
				c0.1,0.1,0.2,0.2,0.3,0.2c4.6,2.9,10.6,3.8,16.6,1.3c6.5-2.7,12.6-9,15.2-15.5C109.7,71.6,111,64.3,109,61.9z"/>
			<path d="M168.6,216C168.6,216,168.6,216,168.6,216c-0.5-0.3-0.9-0.6-1.4-0.9c-0.2,0-0.3,0-0.5,0.1c-0.6-0.7-1.5-1.1-2.5-1.3
				c-0.1-0.1-0.2-0.2-0.3-0.3c-0.8-0.5-1.6-1.1-2.4-1.8c-1.7-0.8-3.2-1.9-4.7-3c-0.1,0-0.1-0.1-0.1-0.1c0,0,0,0,0,0
				c-1.1-1.2-2-2.6-2.8-4c-1.8-8.2-3.4-16.5-5.1-24.8c-0.1-1.7-0.3-3.3-0.5-4.9c-1.2-8.8-2.8-17.5-4.6-26.1c-1.3-4-3-6.5-4.5-10.6
				c-0.3-0.9-1.2-2.3-1.7-3.2c-2.8-2.3-5.2-4.9-7.5-7.6c1.4-2.5,2.9-5,4.5-7.4c2.2-3.3,4.4-6.7,3.2-10.8c-0.2-0.6-0.6-0.9-1.1-1.1
				c0-0.1-0.1-0.1-0.1-0.2c-1.2-2.2-3-3.9-5.1-5.4c0-0.2,0-0.4,0-0.6c0-4.3-3.4-7.2-7.1-8.8c-6.9-3.1-14.6-5.1-21.8-7.6
				c-0.5-0.2-1-0.1-1.4,0.2c-0.1,0-0.1-0.1-0.2-0.1c-0.1,0-0.1-0.1-0.2-0.1c-1,0.4-1.6,1.8-0.4,2.5c0.4,0.2,0.8,0.5,1.3,0.7
				c5.1,9.7,10.7,19.2,16.9,28.3c0.4,0.6,0.9,1.3,1.3,1.9c-1.1,1.3-2.3,2.4-3.5,3.4c-0.6-0.5-1.3-0.9-2.1-1.1
				c-2.6-0.6-5.1,0.7-7.2,2.3c-4.9,3.6,0.9,9.1,5.4,8.6c2.4-0.3,4.2-2.3,4.8-4.5c0.3-0.6,0.5-1.1,0.5-1.7c0-0.3,0-0.5,0-0.8
				c1.4-1.1,2.7-2.3,3.8-3.6c1.5,2.2,3.1,4.3,4.7,6.3c-0.7,1.3-1.4,2.7-2.1,4l-1.9,3.1c-5-1.3-12,1.5-9.7,7c0.7,1.7,2.2,3.1,4,3.8
				c0.3,0.3,0.6,0.4,1,0.3c1.2,0.3,2.4,0.3,3.6-0.1c0.2-0.1,0.4-0.2,0.6-0.3c0.5-0.1,1-0.3,1.5-0.5c2.8-1.4,4.4-6.2,3.2-9.3
				c-0.1-0.4-0.9,0.9-1.2,0.6c1-2.1,2-4.2,3.1-6.2c1.2,1.4,2.4,2.8,3.8,4c0.1,0.3,0.2,0.6,0.5,0.8c1.5,1.2,1,3.9,0.6,6.2l0,0
				c0,0-0.2,0.1-0.2,0.1c-0.3,1.7-0.8,3.4-1.8,4.6v0c0,2.7-1.7,5.1-2.8,7.6c-0.1,0.3-0.1,0.5-0.3,0.7c0,0,0.1,0,0.1,0
				c-0.6,0.9-1.1,1.9-1.6,2.8c-4.3,5.8-8.3,11.3-8.9,12.3c-0.2,0.3-0.4,0.7-0.6,1.1c-0.4,3.1-0.3,6.2,1.5,8.7
				c0.2,0.2,0.4,0.4,0.6,0.7c1.6,1,3.5,1.9,5.3,2.7c0,0,0,0,0,0c0.2,0.1,0.3,0.1,0.5,0.2c0.2,0.1,0.4,0.2,0.6,0.2
				c0.7,0.4,1.8,0.9,2.8,1.3c0.2,0.1,0.4,0.1,0.6,0.2c0.1,0,0.2,0.1,0.3,0.1c0.1,0,0.1,0,0.2,0.1c0.3,0.3,0.7,0.6,1,0.9
				c3,4.3,7.2,8.2,5.3,13.9c0,0.1,0,0.2,0,0.2c-0.1,0.2-0.1,0.3-0.2,0.5c-0.1,0.1-0.2,0.2-0.2,0.4c-0.4,0.9-0.5,1.8-1.1,2.7
				c-0.6,0.8-1.3,1.3-2.2,1.7c-1.8,0.8-0.4,3.4,1.4,2.7c1.2-0.5,2.2-1.4,3.1-2.4c0.4-0.1,0.7-0.4,0.9-0.8c1-2.1,1.6-4.3,2.2-6.5
				c1.1-3.1,2.1-6.1,3.2-9.2c1-2.9,2-5.3,1.1-8c0.1-0.7-0.2-1.5-0.9-1.7c-0.5-0.5-1.1-0.6-1.7-0.4c-2.6-0.2-5,0.9-7.5,1.5
				c-0.8,0.1-1.5,0.2-2,0.3c-0.3,0-0.5,0.1-0.7,0.3c-0.6-0.1-1.1-0.2-1.7-0.3c-1-0.3-2-0.4-3-0.6c0,0,0,0,0,0
				c-0.9-0.4-1.8-0.9-2.7-1.3c-0.8-0.4-2.3-0.8-2.9-1.4c-0.3-0.4-0.5-0.9-0.7-1.5c2.4-5.1,5.3-9.8,8.3-14.6c1.3-2.1,2.5-4.2,3.7-6.4
				c1.8-2.2,3.8-4.3,5.6-6.5c0.2-0.3,0.4-0.5,0.6-0.8c0.1-0.1,0.2-0.2,0.2-0.3c2.9,11.5,5.3,23.2,7.7,34.9c0.9,7.5,1,14.9,3.8,21.5
				c-0.1,0.2-0.1,0.5,0,0.8c0.7,2.7,1.5,5.6,3.3,7.8c0.8,1,1.9,1.8,3,2.7c0.3,3.3,0,6.6-1,9.8c0,0.1,0,0.3-0.1,0.4
				c-0.6,0.3-1.1,0.5-1.3,0.6c-4.2,1.6-9,2-13.1,0.1c0.1-0.8-0.3-1.5-1.3-1.6c-0.5,0-1,0-1.6,0c-1.4,0-2.3,1.7-1.1,2.7
				c5.6,4.4,13.4,3.8,19.6,1C159.7,226.1,170.6,220.7,168.6,216z M116.2,93.5c4.2,1.4,10.1,2.7,11.5,6.9c-1.7-1-3.4-1.8-4.9-2.7
				l-8.1-4.7L116.2,93.5z M120.7,115.2c-5.2-7.6-10-15.6-14.4-23.7c7.3,4,14.8,7.8,21.5,12.5c0,0.1,0,0.2,0,0.3c-1,4-3.2,8.5-6,12.3
				C121.4,116.1,121,115.7,120.7,115.2z M123.4,119.1c0.6-0.8,1.1-1.6,1.7-2.5c1.8-2.9,4.2-6.8,5.5-10.5c1.8,1.4,3.6,3.3,4,5.6
				c0.1,0.5,0.1,1.1,0,1.6c0,0.2-0.1,0.3-0.1,0.5c-2,2.3-4.6,4.6-5.1,6.8c-0.2,1-0.4,1.9-0.6,2.8c-0.2,0.4-0.5,0.7-0.7,1.1
				c-0.1,0.2-0.2,0.4-0.4,0.7C126.2,123.1,124.8,121.1,123.4,119.1z"/>
		</g>
	</g>
	<g class="frame" id="frame_3">
		<g>
			<path d="M106,55.9c-1.5-4.5-4.5-9.4-8.2-11.5c-1.3-0.7-2.8-1.2-4.4-1.3c-11.9-2.8-30,8.1-27.8,19.6c-1.2,7.8,2.5,15,8.3,18.9
				c0.1,0.1,0.2,0.2,0.3,0.2c4.6,2.9,10.6,3.8,16.6,1.3c6.5-2.7,12.6-9,15.2-15.5C106.7,65.6,108,58.3,106,55.9z"/>
			<path d="M89.8,215c0.1-0.1,0.3-0.1,0.4-0.2c0.1-0.1,0.2-0.3,0.2-0.5c0.4-0.5,0.4-1.2,0.1-1.7c-0.3-2.6-1.8-4.7-2.8-7.1
				c-0.3-0.8-0.5-1.5-0.6-1.9c-0.1-0.3-0.2-0.5-0.4-0.7c0-0.6,0-1.1,0-1.7c0-0.1,0-0.2,0-0.3c-1.3-0.9-2.3-2-3.2-3.3
				c0,0.2-0.1,0.3-0.1,0.5c-0.3,0.8-0.6,1.9-0.7,3c0,0.2-0.1,0.4-0.1,0.6c0,0.1-0.1,0.2-0.1,0.3c0,0.1,0,0.1,0,0.2
				c-0.2,0.4-0.5,0.8-0.7,1.2c-3.7,3.7-6.8,8.6-12.8,7.7c-0.1,0-0.2,0-0.2,0c-0.2,0-0.4-0.1-0.5-0.1c-0.1-0.1-0.3-0.1-0.4-0.2
				c-1-0.2-1.9-0.2-2.8-0.6c-0.9-0.4-1.5-1.1-2.1-1.8c-1.1-1.6-3.4,0.3-2.4,1.9c0.7,1.1,1.7,2,2.9,2.6c0.2,0.3,0.5,0.6,1,0.7
				c2.3,0.6,4.5,0.8,6.8,1c3.2,0.5,6.4,1,9.6,1.5c2.5,0.4,4.7,0.8,6.8,0.2C88.3,215.8,89.1,215.4,89.8,215z"/>
			<path d="M211.6,207c-0.8-7.9-1.8-15.9-5.9-22.8c-0.3-1.3-1-2.4-2.2-2.8c0,0,0,0,0,0c-0.5,0.1-1,0.3-1.6,0.4
				c-0.1,0.1-0.2,0.3-0.3,0.4c-0.9,0-1.9,0.3-2.7,0.9c-0.1,0-0.3,0-0.4,0c-1,0.2-2,0.4-3,0.5c-1.7,0.7-3.6,1-5.5,1.3
				c-0.1,0-0.1,0-0.2,0c0,0,0,0,0,0c-1.4-0.1-2.8-0.3-4.2-0.6c0,0.2,0,0.4,0,0.6c-1.6,0-3.3,0.2-5,0.4c-0.4,0-0.8,0.1-1.2,0.1
				l-10.4-0.8c-2.3-0.2-5.6-0.9-8-0.3c-0.5-0.6-1-1.4-1.6-2.5c-0.3-0.5-0.6-1-0.8-1.6c-0.9-2.4-1.8-4.7-2.8-7.1
				c0.1-0.2,0.1-0.5,0-0.8c-0.1-0.3-0.2-0.6-0.3-0.9c-0.5-1.7-1.1-4.1-2-5.9c-0.1-0.4-0.3-0.7-0.4-1.1c-0.6-2.4-1.3-4.9-2.1-7.3
				c-1.7-5.4-3.5-13.4-8.3-17.3c-0.1,0.1-0.2,0.3-0.4,0.4c-2-3.2-4-6.5-6-9.7c-3.7-5.9-7.3-11.7-10.8-17.7l0-0.1
				c-1.8-3.3-3.5-6.7-5.4-9.9c-0.7-1.4-1.5-3-2.4-4.8c-2.2-3-4.1-6.1-5.6-9.5c-1.1-1.7-2.3-3.2-3.4-4.5c11,2.6,22.1,5.8,31.2,12.7
				c3.6,2.7,6.3,6,8.8,9.4c-0.1,0.3-0.1,0.5,0,0.8c1.4,3.5,3.8,5.7,6.1,8.6c3,3.7,4.9,8.1,6.6,12.6c-1.5,2.4-1.5,5.6,0.9,7.4
				c1.1,2.4,4.2,3.6,6.7,1.4c0.3-0.3,0.6-0.6,0.8-1c0.6-0.5,1-1.1,1.2-1.8c0.5-0.5,0.9-1,1.2-1.7c1.9-4.6-2.4-7.9-6.5-7.1
				c0-0.1-0.1-0.1-0.1-0.2c-0.5-0.5-1-1-1.5-1.5c-1-4.1-3.3-7.2-6.5-10.6c-1.8-2-3.4-4.1-4.9-6.3c0.1-0.8-0.3-1.6-1.3-1.8
				c-2.2-3.2-4.5-6.3-7.7-8.9c-11.2-9.4-25.6-12.8-39.6-16c-0.5-0.1-0.9,0-1.3,0.3c-1-1-3.1-0.2-2.5,1.4c7.1,20.6,7.2,43.8-2.2,63.4
				c-1.3,2.3-2.7,4.6-4.2,6.9c-3.5-2.9-9.1,1.4-10.5,4.9c-0.8,2.1-0.4,4,0.8,5.5c1.8,3.4,7.6,3.7,10.6,1.9c0,0,0.1-0.1,0.1-0.1
				c0.8-0.4,1.5-0.8,2.1-1.3c-2.7,4.8-4.7,10.3-6.7,15.3c-0.8,2-1.6,4.1-2.3,6.1c-2,4.8-3.7,9.7-4.8,14.8c-0.4,1.9,2.4,2.7,2.9,0.8
				c1.3-4.4,2.6-9,4.1-13.6c3-7.8,6.9-15.3,11.1-22.2c1.8-2.9,4.1-5.3,6.6-7.4c2.9-1.5,6.2-2.6,9.1-3.9c2.1-0.9,4.3-1.9,6.4-2.8
				c1.6-0.6,3.3-1.3,4.9-2c1-0.7,2-1.2,3.1-1.5c1.6-1.3,3.7-1.9,6.3-1.4c5.9,1.1,8,7.7,9.6,12.7c1.9,5.7,4.1,11.3,6.2,17
				c1.9,5,3.8,10,6.9,14.2c7.7-0.1,15.4-0.2,23.2-0.3c1.1,0.1,2.2,0.2,3.4,0.3c0.9,0.3,1.8,0.5,2.7,0.6c1,0.1,2.1,0,3.2-0.2
				c0.2,0,0.3,0,0.5,0c0.2,0,0.3,0,0.4,0c1.9,1.5,3.5,3.3,4.9,5.2c2.1,0.9,3.7,3.2,3.3,5.6c0.1,0.1,0.2,0.2,0.3,0.3
				c0.1-0.2,0.2-0.3,0.2-0.5c1.3,2.3,2.5,4.7,3.7,7.1l-3.8,1.5c-1,0.4-1.3,1.6-0.9,2.3c-1.6,0.8-1,3.4,0.9,2.9c2.8-0.8,5.4-2.2,7.7-4
				c0.5-0.4,0.6-1,0.3-1.5C211.1,208.3,211.7,207.8,211.6,207z M133.9,141c-0.1-0.1-0.2-0.1-0.3-0.2c-0.2,0.1-0.3,0.2-0.5,0.3
				c0,0.1,0,0.1,0,0.2c-0.8,0.4-1.6,0.8-2.4,1.2c-0.2,0.1-0.3,0.2-0.5,0.4c-0.2,0.1-0.4,0.1-0.7,0.2c-1.3,0.6-2.6,1.2-3.9,1.7
				c-0.1,0.1-0.3,0.1-0.4,0.2c-0.3,0.2-0.6,0.3-1,0.5c-0.2,0.1-0.4,0.1-0.6,0.2c-1.1,0.4-2.1,0.8-3.2,1.1c-3.7,1.4-7.3,2.9-10.6,4.9
				c-3.3,1.1-6.6,2.4-9.8,3.8c-1.3,0.6-0.8,2.3,0.3,2.7c-0.3,0.3-0.6,0.7-0.9,1c0.1-0.9,0-1.8-0.6-2.8c-0.6-1.1-1.4-2-2.2-2.6
				c1.6-2.5,3.1-5.1,4.3-7.8c2-3.6,3.9-7.3,5.4-11.1c-0.4-0.1-0.7-0.2-1.1-0.4c4.6-16,3.9-33.5-0.8-49.7c1,1.1,1.8,2.2,2.5,3.4
				c0.2,0.2,0.4,0.5,0.7,0.8c1,1.4,2.3,3.3,3.4,5.3c1.8,2.4,3.4,4.8,4.9,7.4c2.2,4.3,4.6,8.6,7,12.8c3,5.7,6.1,11.4,9.1,17.1
				c1.5,2.8,2.9,5.5,4.4,8.3C135.7,140.3,134.8,140.6,133.9,141z"/>
		</g>
		<g>
			<path d="M106,55.9c-1.5-4.5-4.5-9.4-8.2-11.5c-1.3-0.7-2.8-1.2-4.4-1.3c-11.9-2.8-30,8.1-27.8,19.6c-1.2,7.8,2.5,15,8.3,18.9
				c0.1,0.1,0.2,0.2,0.3,0.2c4.6,2.9,10.6,3.8,16.6,1.3c6.5-2.7,12.6-9,15.2-15.5C106.7,65.6,108,58.3,106,55.9z"/>
			<path d="M89.8,215c0.1-0.1,0.3-0.1,0.4-0.2c0.1-0.1,0.2-0.3,0.2-0.5c0.4-0.5,0.4-1.2,0.1-1.7c-0.3-2.6-1.8-4.7-2.8-7.1
				c-0.3-0.8-0.5-1.5-0.6-1.9c-0.1-0.3-0.2-0.5-0.4-0.7c0-0.6,0-1.1,0-1.7c0-0.1,0-0.2,0-0.3c-1.3-0.9-2.3-2-3.2-3.3
				c0,0.2-0.1,0.3-0.1,0.5c-0.3,0.8-0.6,1.9-0.7,3c0,0.2-0.1,0.4-0.1,0.6c0,0.1-0.1,0.2-0.1,0.3c0,0.1,0,0.1,0,0.2
				c-0.2,0.4-0.5,0.8-0.7,1.2c-3.7,3.7-6.8,8.6-12.8,7.7c-0.1,0-0.2,0-0.2,0c-0.2,0-0.4-0.1-0.5-0.1c-0.1-0.1-0.3-0.1-0.4-0.2
				c-1-0.2-1.9-0.2-2.8-0.6c-0.9-0.4-1.5-1.1-2.1-1.8c-1.1-1.6-3.4,0.3-2.4,1.9c0.7,1.1,1.7,2,2.9,2.6c0.2,0.3,0.5,0.6,1,0.7
				c2.3,0.6,4.5,0.8,6.8,1c3.2,0.5,6.4,1,9.6,1.5c2.5,0.4,4.7,0.8,6.8,0.2C88.3,215.8,89.1,215.4,89.8,215z"/>
			<path d="M211.6,207c-0.8-7.9-1.8-15.9-5.9-22.8c-0.3-1.3-1-2.4-2.2-2.8c0,0,0,0,0,0c-0.5,0.1-1,0.3-1.6,0.4
				c-0.1,0.1-0.2,0.3-0.3,0.4c-0.9,0-1.9,0.3-2.7,0.9c-0.1,0-0.3,0-0.4,0c-1,0.2-2,0.4-3,0.5c-1.7,0.7-3.6,1-5.5,1.3
				c-0.1,0-0.1,0-0.2,0c0,0,0,0,0,0c-1.4-0.1-2.8-0.3-4.2-0.6c0,0.2,0,0.4,0,0.6c-1.6,0-3.3,0.2-5,0.4c-0.4,0-0.8,0.1-1.2,0.1
				l-10.4-0.8c-2.3-0.2-5.6-0.9-8-0.3c-0.5-0.6-1-1.4-1.6-2.5c-0.3-0.5-0.6-1-0.8-1.6c-0.9-2.4-1.8-4.7-2.8-7.1
				c0.1-0.2,0.1-0.5,0-0.8c-0.1-0.3-0.2-0.6-0.3-0.9c-0.5-1.7-1.1-4.1-2-5.9c-0.1-0.4-0.3-0.7-0.4-1.1c-0.6-2.4-1.3-4.9-2.1-7.3
				c-1.7-5.4-3.5-13.4-8.3-17.3c-0.1,0.1-0.2,0.3-0.4,0.4c-2-3.2-4-6.5-6-9.7c-3.7-5.9-7.3-11.7-10.8-17.7l0-0.1
				c-1.8-3.3-3.5-6.7-5.4-9.9c-0.7-1.4-1.5-3-2.4-4.8c-2.2-3-4.1-6.1-5.6-9.5c-1.1-1.7-2.3-3.2-3.4-4.5c11,2.6,22.1,5.8,31.2,12.7
				c3.6,2.7,6.3,6,8.8,9.4c-0.1,0.3-0.1,0.5,0,0.8c1.4,3.5,3.8,5.7,6.1,8.6c3,3.7,4.9,8.1,6.6,12.6c-1.5,2.4-1.5,5.6,0.9,7.4
				c1.1,2.4,4.2,3.6,6.7,1.4c0.3-0.3,0.6-0.6,0.8-1c0.6-0.5,1-1.1,1.2-1.8c0.5-0.5,0.9-1,1.2-1.7c1.9-4.6-2.4-7.9-6.5-7.1
				c0-0.1-0.1-0.1-0.1-0.2c-0.5-0.5-1-1-1.5-1.5c-1-4.1-3.3-7.2-6.5-10.6c-1.8-2-3.4-4.1-4.9-6.3c0.1-0.8-0.3-1.6-1.3-1.8
				c-2.2-3.2-4.5-6.3-7.7-8.9c-11.2-9.4-25.6-12.8-39.6-16c-0.5-0.1-0.9,0-1.3,0.3c-1-1-3.1-0.2-2.5,1.4c7.1,20.6,7.2,43.8-2.2,63.4
				c-1.3,2.3-2.7,4.6-4.2,6.9c-3.5-2.9-9.1,1.4-10.5,4.9c-0.8,2.1-0.4,4,0.8,5.5c1.8,3.4,7.6,3.7,10.6,1.9c0,0,0.1-0.1,0.1-0.1
				c0.8-0.4,1.5-0.8,2.1-1.3c-2.7,4.8-4.7,10.3-6.7,15.3c-0.8,2-1.6,4.1-2.3,6.1c-2,4.8-3.7,9.7-4.8,14.8c-0.4,1.9,2.4,2.7,2.9,0.8
				c1.3-4.4,2.6-9,4.1-13.6c3-7.8,6.9-15.3,11.1-22.2c1.8-2.9,4.1-5.3,6.6-7.4c2.9-1.5,6.2-2.6,9.1-3.9c2.1-0.9,4.3-1.9,6.4-2.8
				c1.6-0.6,3.3-1.3,4.9-2c1-0.7,2-1.2,3.1-1.5c1.6-1.3,3.7-1.9,6.3-1.4c5.9,1.1,8,7.7,9.6,12.7c1.9,5.7,4.1,11.3,6.2,17
				c1.9,5,3.8,10,6.9,14.2c7.7-0.1,15.4-0.2,23.2-0.3c1.1,0.1,2.2,0.2,3.4,0.3c0.9,0.3,1.8,0.5,2.7,0.6c1,0.1,2.1,0,3.2-0.2
				c0.2,0,0.3,0,0.5,0c0.2,0,0.3,0,0.4,0c1.9,1.5,3.5,3.3,4.9,5.2c2.1,0.9,3.7,3.2,3.3,5.6c0.1,0.1,0.2,0.2,0.3,0.3
				c0.1-0.2,0.2-0.3,0.2-0.5c1.3,2.3,2.5,4.7,3.7,7.1l-3.8,1.5c-1,0.4-1.3,1.6-0.9,2.3c-1.6,0.8-1,3.4,0.9,2.9c2.8-0.8,5.4-2.2,7.7-4
				c0.5-0.4,0.6-1,0.3-1.5C211.1,208.3,211.7,207.8,211.6,207z M133.9,141c-0.1-0.1-0.2-0.1-0.3-0.2c-0.2,0.1-0.3,0.2-0.5,0.3
				c0,0.1,0,0.1,0,0.2c-0.8,0.4-1.6,0.8-2.4,1.2c-0.2,0.1-0.3,0.2-0.5,0.4c-0.2,0.1-0.4,0.1-0.7,0.2c-1.3,0.6-2.6,1.2-3.9,1.7
				c-0.1,0.1-0.3,0.1-0.4,0.2c-0.3,0.2-0.6,0.3-1,0.5c-0.2,0.1-0.4,0.1-0.6,0.2c-1.1,0.4-2.1,0.8-3.2,1.1c-3.7,1.4-7.3,2.9-10.6,4.9
				c-3.3,1.1-6.6,2.4-9.8,3.8c-1.3,0.6-0.8,2.3,0.3,2.7c-0.3,0.3-0.6,0.7-0.9,1c0.1-0.9,0-1.8-0.6-2.8c-0.6-1.1-1.4-2-2.2-2.6
				c1.6-2.5,3.1-5.1,4.3-7.8c2-3.6,3.9-7.3,5.4-11.1c-0.4-0.1-0.7-0.2-1.1-0.4c4.6-16,3.9-33.5-0.8-49.7c1,1.1,1.8,2.2,2.5,3.4
				c0.2,0.2,0.4,0.5,0.7,0.8c1,1.4,2.3,3.3,3.4,5.3c1.8,2.4,3.4,4.8,4.9,7.4c2.2,4.3,4.6,8.6,7,12.8c3,5.7,6.1,11.4,9.1,17.1
				c1.5,2.8,2.9,5.5,4.4,8.3C135.7,140.3,134.8,140.6,133.9,141z"/>
		</g>
	</g>
</g>
</svg>
