<svg xmlns="http://www.w3.org/2000/svg" viewBox="0 0 256 183"><style>path{fill:#fff}</style><path d="M124.8 11c-2.4 3-115.3 153.4-118 157.5-.7.9.1 2.5 1.2 2.5h124c-3.7-5.8-6.8-13.8-9.1-23H51.5c-1.3 0-2.3-1.8-1.6-2.8 3.2-4.6 18-24.2 21.1-28.3 1.3-1.7 2.4-1.9 3.7-1.9h44c0-8 1.2-14 2.4-20H91.4c-2.2 0-2.4-1.8-1.4-3.1 3.9-4.9 35.1-47.1 36.3-48.9 1-1.6 2.3-1.5 3.4 0 1.2 1.7 4.4 5.1 7.1 9.2 4.2-7.4 7.4-12.5 11.8-19.2-5-6.6-11.4-14.8-17-22.1-1.9-2.3-4.9-2.4-6.8.1z"/><path d="M251.4 168.2c-4.6-6.8-91.4-120.3-96.6-127-2.2-2.8-3.4-2.7-5.4.5-27.4 43.9-32.3 89.3-13 126.2 1 1.9 1.8 3 4.6 3h108.4c1.3.1 2.8-1.5 2-2.7zm-44-20.2h-53.1c-1.4 0-1.8-.7-2.3-1.7-9.7-18.6-8.1-45.8 2.2-68 .8-1.7 1.6-1.7 2.7-.3 2.6 3.4 49.2 65 51.5 68.4.5.6-.3 1.6-1 1.6z"/></svg>