<svg version="1.1" id="icon_x5F_animator" xmlns="http://www.w3.org/2000/svg" x="0" y="0" viewBox="0 0 256 256" xml:space="preserve"><style>.frame path{fill:#000}.frames&gt;*{opacity:0;animation-duration:0.25s;animation-iteration-count:infinite;animation-timing-function:steps(1)}@-webkit-keyframes frames-1{0%{opacity:1}25%{opacity:0}}@-moz-keyframes frames-1{0%{opacity:1}25%{opacity:0}}@-o-keyframes frames-1{0%{opacity:1}25%{opacity:0}}@keyframes frames-1{0%{opacity:1}25%{opacity:0}}.frames&gt;:nth-child(1){-webkit-animation-name:frames-1;-moz-animation-name:frames-1;-o-animation-name:frames-1;animation-name:frames-1}@-webkit-keyframes frames-2{25%{opacity:1}50%{opacity:0}}@-moz-keyframes frames-2{25%{opacity:1}50%{opacity:0}}@-o-keyframes frames-2{25%{opacity:1}50%{opacity:0}}@keyframes frames-2{25%{opacity:1}50%{opacity:0}}.frames&gt;:nth-child(2){-webkit-animation-name:frames-2;-moz-animation-name:frames-2;-o-animation-name:frames-2;animation-name:frames-2}@-webkit-keyframes frames-3{50%{opacity:1}75%{opacity:0}}@-moz-keyframes frames-3{50%{opacity:1}75%{opacity:0}}@-o-keyframes frames-3{50%{opacity:1}75%{opacity:0}}@keyframes frames-3{50%{opacity:1}75%{opacity:0}}.frames&gt;:nth-child(3){-webkit-animation-name:frames-3;-moz-animation-name:frames-3;-o-animation-name:frames-3;animation-name:frames-3}@-webkit-keyframes frames-4{75%{opacity:1}100%{opacity:0}}@-moz-keyframes frames-4{75%{opacity:1}100%{opacity:0}}@-o-keyframes frames-4{75%{opacity:1}100%{opacity:0}}@keyframes frames-4{75%{opacity:1}100%{opacity:0}}.frames&gt;:nth-child(4){-webkit-animation-name:frames-4;-moz-animation-name:frames-4;-o-animation-name:frames-4;animation-name:frames-4}</style><circle cx="128" cy="128" r="128" fill="#eee"/><g class="frames"><g class="frame" id="frame_0"><path d="M90 66.9c-1.5-4.5-4.5-9.4-8.2-11.5-1.3-.7-2.8-1.2-4.4-1.3-11.9-2.8-30 8.1-27.8 19.6-1.2 7.8 2.5 15 8.3 18.9.1.1.2.2.3.2 4.6 2.9 10.6 3.8 16.6 1.3 6.5-2.7 12.6-9 15.2-15.5.7-2 2-9.3 0-11.7zm.6 31.6c-1.6 6.2-3.7 12.3-6.4 18.2-1.2 2.6-2.5 5.1-4 7.6-1.2 2-3 6.5-5.4 7.3-4.5 1.4-14-6.2-17.6-8.5-4-2.5-7.9-5.2-11.7-8 1.8-1.8 2.8-4.8 1.3-7.2-1.2-2-3.6-2.3-5.4-1-2.9.2-4.8 3.5-4.1 6 0 1.8.8 3.6 2.5 4.5 1.3.7 2.5.5 3.5-.1 5 3.7 10 7.1 15.3 10.4 3.8 2.3 12.9 9.2 17.9 6.9 1.8-.9 2.9-3.3 4-5 2-3.1 3.8-6.4 5.5-9.7 3.2-6.5 5.7-13.4 7.5-20.4.4-2.1-2.5-2.9-2.9-1z"/><path d="M227.8 141c-.6-1.2-1.5-2.2-2.5-3-.1-.4-.4-.7-.9-.9-2.2-.9-4.4-1.5-6.6-1.9-3.1-.9-6.2-1.8-9.3-2.8-2.9-.9-5.4-1.8-8-.7-.7-.1-1.5.3-1.7 1-.5.5-.5 1.2-.3 1.7-.1 2.6 1.2 4.9 1.8 7.4.2.8.3 1.5.4 2 .1.7.5 1.1 1 1.3-.2.2-.3.4-.5.5-1.2 1.4-2.5 2.8-3.7 4.2-2.2 2.4-4.4 4.7-6.7 6.9-5 4.8-10.5 9.1-16.8 12.1-3.7 1.7-9.7 4.9-13.3 1.1-2.4-2.6-3.9-6.8-5.6-9.8-4.2-7.4-8.3-14.8-12.5-22.2-.5-.9-1.6-.9-2.2-.4-9.2-4.6-16.1-12.7-22.7-20.4-7.3-8.4-13.9-17.3-20.1-26.6.4-.3.7-.8.6-1.5-2.3-16 5.9-29 17.2-39.5 2.3-2.2 4.8-4.3 7.2-6.3 3.9-3.3 6.3-1.9 9.9.6 4.2 3 8.7 5.3 13.5 7.1-.3.6-.5 1.2-.6 2-.2 3.2 3.1 5.5 6.1 5 3-.5 6.3-3.7 6.1-7-.1-3.4-3.7-3.5-6.4-2.6-.8 0-1.7.1-2.5.4-4.1-1.5-8.1-3.3-11.8-5.6-2.8-1.7-6.2-6.1-9.6-6.3-2.2-.1-4 2-5.6 3.3-3.1 2.6-6.1 5.1-9.1 7.9-11.7 11.1-19.5 24.7-17.4 41.3-.8.3-1.3 1.2-.7 2.1 6.4 9.7 13.4 19.1 21 27.9 6.4 7.4 13 15.1 21.6 20-7.2 3.4-14.2 7.2-21 11.5-5.9 3.7-12.1 7.7-16.8 13-.5 0-1 .2-1.3.7-2.8 4.9-5.5 9.8-8 14.8-.2.4-.2.7-.1 1-.8 2-1.5 4-2.2 6-1.8 5-4 10.4-5.1 15.8-.1.1-.3.2-.4.3-2.9 3.8-6.8 6.6-11.3 8.3-.1 0-.2.1-.4.2-.6-.3-1.1-.5-1.2-.6-3.8-2.4-7.1-6-8-10.4.7-.4 1.1-1.1.5-1.9-.3-.4-.6-.8-.9-1.3-.8-1.1-2.8-.8-2.8.8-.1 7.1 5.1 13 11.1 16.2 3.3 1.8 14.1 7.2 16.7 2.7.5-.8.1-1.6-.5-2 .1-.9 0-1.9-.5-2.8v-.4c-.7-8.2 2.9-16.6 5.6-24.2 1.1-3.1 2.3-6.2 3.6-9.2 1.5-3 3.1-5.9 4.8-8.8h.1c1-1.4 2-2.7 3.2-4 10.2-10.7 25.3-18.1 38.6-24.2 5.5 9.8 10.7 19.8 16.5 29.3 1.6 2.7 3.5 5 6.9 4.9 3.8-.2 7.8-2 11.2-3.6 7.9-3.8 14.7-9.7 20.8-16 3.3-3.4 6.6-7 9.6-10.7 4.2-3.2 7.9-7.6 13.7-5.9h.2c.2.1.3.1.5.2.1.1.2.2.4.2.9.4 1.9.5 2.7 1 .8.5 1.4 1.3 1.8 2.1 1 2 3.6.4 2.7-1.3z"/></g><g class="frame" id="frame_1"><path d="M96.7 83.4c.5-.8 1-1.6 1.4-2.4.8-2.4 1.7-8.9-.2-11.1-1.5-4.5-4.5-9.4-8.2-11.5-1.3-.7-2.8-1.2-4.4-1.3-11.9-2.8-30 8.1-27.8 19.6-1.2 7.8 2.5 15 8.3 18.9.1.1.2.2.3.2 4.6 2.9 10.6 3.8 16.6 1.3 4.9-2.1 9.7-6.2 12.8-10.9.4-1 .7-1.9 1.2-2.8zm40.8 28.3c-.3-.5-.6-.9-1-1.2-.9-1.1-2.2-1.7-3.6-1.8.1-.2.1-.5 0-.8-2.2-8.1-9.7-21.9-19.8-20.8-6.7.7-13.5 3.3-19.9 6.6.5 1 .7 2.2.5 3.4 4.5-2.3 9.2-4.2 14.1-5.6 2.5-.7 5.4-1.8 8-1.2 2.6.6 4.8 2.9 6.6 4.8 3.6 3.9 6.1 8.5 7.5 13.6 0 .1.1.2.1.3-2.4.8-5.1 2.3-5.6 5-.2 1.3.1 2.6.8 3.7.4 1.3 1.6 2.4 3 2.6.5.1 1 .1 1.4 0 5 .5 10.8-3.7 7.9-8.6zm41.1 89.7c-.3-2.3-.9-4.5-1.6-6.7-.7-3.1-1.4-6.3-2.1-9.4-.7-3-1.1-5.6-3.3-7.3-.3-.7-1-1.1-1.7-1-.7-.2-1.3.1-1.6.6-2.3 1.2-3.7 3.4-5.6 5.2-.6.5-1.2 1-1.5 1.3-.3.2-.5.5-.6.9h-.3c-1.5.4-2.9.9-4.3 1.5-.2.1-.3.2-.4.3-2.9.8-6 1.7-8.8 1.7-7-.1-6.3-5.5-5.5-10.2 1.8-10.2 2.3-20.5 1.7-30.7.1-.1.1-.2.2-.4 1-4.6-1.3-9.2-5.4-11.3-1.1-1.1-2.3-2-3.7-2.9-.2-.3-.5-.6-.7-.8-2.6-1.4-5.2-2.9-7.7-4.6 0 0 0 .1.1.1-2.9-1.9-5.7-3.9-8.5-6.1-2.5-2-4.9-4.1-7.2-6.2-.1-.4-.3-.9-.4-1.3-1.3-.9-2.6-1.9-3.8-3.1 0 .2.1.4.1.5-5.4-5.3-10.5-10.9-15.5-16.6-1.3-1.5-3.4.7-2.1 2.1 5.9 6.8 12.1 13.5 18.7 19.7 0 .1 0 .3.1.4.2.3.5.5.7.7 1.2.3 2.1 1.1 2.7 2 1.1.7 2.1 1.5 3 2.5 3.5 2.9 7.1 5.6 10.8 8.1 1.3.8 2.8 1.7 4.3 2.5.8.7 1.7 1.4 2.5 2.1.1.3.3.6.6.8 1.6 1.1 1.8 3.3 1.4 5.5l-.2.1c-.3 1.7-.8 3.4-1.8 4.6 0 2.7-1.7 5.1-2.8 7.6-.1.3-.1.5-.3.7h.1c-7.2 12.3-14.9 24.4-16.3 38.8-.8 8.2.7 16.7 4.8 24 .1.2.2.4.4.6h-.3c-1 4-3 7.6-5.8 10.7-.1.1-.2.2-.2.3h-1.4c-4.5-.4-9-2.1-11.8-5.6.4-.6.4-1.5-.5-1.9-.5-.2-.9-.5-1.4-.7-1.3-.6-2.9.5-2.1 2 3.2 6.4 10.5 9.2 17.3 9.3 3.7.1 15.9 0 16.1-5.2-.3-.5-.6-.9-.9-1.4-.2-.1-.3-.1-.5-.1-.3-.9-.8-1.7-1.7-2.2 0-.1-.1-.3-.2-.4-.5-.8-1-1.7-1.4-2.7-1.2-1.5-2.1-3.1-3-4.8 0-.1 0-.1-.1-.2h-.2c-1-1.8-1.8-3.7-2.4-5.7-2.7-8.4-2.2-17.4.3-25.7 2.5-8.2 6.9-15.3 11.4-22.6 3.7-6.1 7-12.3 9.9-18.8.1 0 .2-.1.3-.1.3.4.8.6 1.3.5.7 7.7.9 15.5.2 23.3-.4 4.7-1.2 9.2-1.9 13.8-.4 2.5-.7 5.2.5 7.6 2.5 5 8.4 4.3 13 3.3l6.6-1.5c1.2 0 2.3-.2 3.4-.4.5.1 1 .2 1.4.3 4.8 2.1 10.5 3.1 11.9 9 0 .1.1.2.1.2 0 .2.1.3.1.5v.4c.1 1 .5 1.9.4 2.9-.1 1-.4 1.8-1 2.6-1.1 1.6 1.5 3.1 2.6 1.5.7-1.1 1.2-2.3 1.3-3.7.1.1.2-.3.2-.8z"/><path d="M95.4 121c-1.6-6.6-3.5-13.1-5.8-19.6-.6-1.8-3.5-1-2.9.8 1.7 5 3.3 10 4.6 15.1 1.2 4.4 3.2 9.7 2.3 14.2-4.5 6.4-9 12.6-14.6 17.8h-.1c-.7.7-1.5 1.4-2.2 2-.7.6-1.5 1.2-2.3 1.8l-.3.3c-1.2-1.6-3-2.6-5.1-2.5-1.8.1-3 1-3.9 2.2-.5-.2-1.1-.2-1.6.3-1.4 1.4-1.9 3.3-1.6 5.2-.2.9-.1 1.9.3 2.9 1.3 3.1 4.6 4.3 7.7 3.3 2.3-.8 4.1-2.6 4.9-4.8.7-1.1.9-2.3.6-3.5 1-.8 1.9-1.7 2.8-2.5 7.3-5.9 12.6-13.3 18.1-21 .2-.1.4-.3.6-.4.8-3.8-.7-8.1-1.5-11.6z"/><path d="M96.7 83.4c.5-.8 1-1.6 1.4-2.4.8-2.4 1.7-8.9-.2-11.1-1.5-4.5-4.5-9.4-8.2-11.5-1.3-.7-2.8-1.2-4.4-1.3-11.9-2.8-30 8.1-27.8 19.6-1.2 7.8 2.5 15 8.3 18.9.1.1.2.2.3.2 4.6 2.9 10.6 3.8 16.6 1.3 4.9-2.1 9.7-6.2 12.8-10.9.4-1 .7-1.9 1.2-2.8zm40.8 28.3c-.3-.5-.6-.9-1-1.2-.9-1.1-2.2-1.7-3.6-1.8.1-.2.1-.5 0-.8-2.2-8.1-9.7-21.9-19.8-20.8-6.7.7-13.5 3.3-19.9 6.6.5 1 .7 2.2.5 3.4 4.5-2.3 9.2-4.2 14.1-5.6 2.5-.7 5.4-1.8 8-1.2 2.6.6 4.8 2.9 6.6 4.8 3.6 3.9 6.1 8.5 7.5 13.6 0 .1.1.2.1.3-2.4.8-5.1 2.3-5.6 5-.2 1.3.1 2.6.8 3.7.4 1.3 1.6 2.4 3 2.6.5.1 1 .1 1.4 0 5 .5 10.8-3.7 7.9-8.6zm41.1 89.7c-.3-2.3-.9-4.5-1.6-6.7-.7-3.1-1.4-6.3-2.1-9.4-.7-3-1.1-5.6-3.3-7.3-.3-.7-1-1.1-1.7-1-.7-.2-1.3.1-1.6.6-2.3 1.2-3.7 3.4-5.6 5.2-.6.5-1.2 1-1.5 1.3-.3.2-.5.5-.6.9h-.3c-1.5.4-2.9.9-4.3 1.5-.2.1-.3.2-.4.3-2.9.8-6 1.7-8.8 1.7-7-.1-6.3-5.5-5.5-10.2 1.8-10.2 2.3-20.5 1.7-30.7.1-.1.1-.2.2-.4 1-4.6-1.3-9.2-5.4-11.3-1.1-1.1-2.3-2-3.7-2.9-.2-.3-.5-.6-.7-.8-2.6-1.4-5.2-2.9-7.7-4.6 0 0 0 .1.1.1-2.9-1.9-5.7-3.9-8.5-6.1-2.5-2-4.9-4.1-7.2-6.2-.1-.4-.3-.9-.4-1.3-1.3-.9-2.6-1.9-3.8-3.1 0 .2.1.4.1.5-5.4-5.3-10.5-10.9-15.5-16.6-1.3-1.5-3.4.7-2.1 2.1 5.9 6.8 12.1 13.5 18.7 19.7 0 .1 0 .3.1.4.2.3.5.5.7.7 1.2.3 2.1 1.1 2.7 2 1.1.7 2.1 1.5 3 2.5 3.5 2.9 7.1 5.6 10.8 8.1 1.3.8 2.8 1.7 4.3 2.5.8.7 1.7 1.4 2.5 2.1.1.3.3.6.6.8 1.6 1.1 1.8 3.3 1.4 5.5l-.2.1c-.3 1.7-.8 3.4-1.8 4.6 0 2.7-1.7 5.1-2.8 7.6-.1.3-.1.5-.3.7h.1c-7.2 12.3-14.9 24.4-16.3 38.8-.8 8.2.7 16.7 4.8 24 .1.2.2.4.4.6h-.3c-1 4-3 7.6-5.8 10.7-.1.1-.2.2-.2.3h-1.4c-4.5-.4-9-2.1-11.8-5.6.4-.6.4-1.5-.5-1.9-.5-.2-.9-.5-1.4-.7-1.3-.6-2.9.5-2.1 2 3.2 6.4 10.5 9.2 17.3 9.3 3.7.1 15.9 0 16.1-5.2-.3-.5-.6-.9-.9-1.4-.2-.1-.3-.1-.5-.1-.3-.9-.8-1.7-1.7-2.2 0-.1-.1-.3-.2-.4-.5-.8-1-1.7-1.4-2.7-1.2-1.5-2.1-3.1-3-4.8 0-.1 0-.1-.1-.2h-.2c-1-1.8-1.8-3.7-2.4-5.7-2.7-8.4-2.2-17.4.3-25.7 2.5-8.2 6.9-15.3 11.4-22.6 3.7-6.1 7-12.3 9.9-18.8.1 0 .2-.1.3-.1.3.4.8.6 1.3.5.7 7.7.9 15.5.2 23.3-.4 4.7-1.2 9.2-1.9 13.8-.4 2.5-.7 5.2.5 7.6 2.5 5 8.4 4.3 13 3.3l6.6-1.5c1.2 0 2.3-.2 3.4-.4.5.1 1 .2 1.4.3 4.8 2.1 10.5 3.1 11.9 9 0 .1.1.2.1.2 0 .2.1.3.1.5v.4c.1 1 .5 1.9.4 2.9-.1 1-.4 1.8-1 2.6-1.1 1.6 1.5 3.1 2.6 1.5.7-1.1 1.2-2.3 1.3-3.7.1.1.2-.3.2-.8z"/><path d="M95.4 121c-1.6-6.6-3.5-13.1-5.8-19.6-.6-1.8-3.5-1-2.9.8 1.7 5 3.3 10 4.6 15.1 1.2 4.4 3.2 9.7 2.3 14.2-4.5 6.4-9 12.6-14.6 17.8h-.1c-.7.7-1.5 1.4-2.2 2-.7.6-1.5 1.2-2.3 1.8l-.3.3c-1.2-1.6-3-2.6-5.1-2.5-1.8.1-3 1-3.9 2.2-.5-.2-1.1-.2-1.6.3-1.4 1.4-1.9 3.3-1.6 5.2-.2.9-.1 1.9.3 2.9 1.3 3.1 4.6 4.3 7.7 3.3 2.3-.8 4.1-2.6 4.9-4.8.7-1.1.9-2.3.6-3.5 1-.8 1.9-1.7 2.8-2.5 7.3-5.9 12.6-13.3 18.1-21 .2-.1.4-.3.6-.4.8-3.8-.7-8.1-1.5-11.6z"/></g><g class="frame" id="frame_2"><path d="M109 61.9c-1.5-4.5-4.5-9.4-8.2-11.5-1.3-.7-2.8-1.2-4.4-1.3-11.9-2.8-30 8.1-27.8 19.6-1.2 7.8 2.5 15 8.3 18.9.1.1.2.2.3.2 4.6 2.9 10.6 3.8 16.6 1.3 6.5-2.7 12.6-9 15.2-15.5.7-2 2-9.3 0-11.7zM168.6 216c-.5-.3-.9-.6-1.4-.9-.2 0-.3 0-.5.1-.6-.7-1.5-1.1-2.5-1.3l-.3-.3c-.8-.5-1.6-1.1-2.4-1.8-1.7-.8-3.2-1.9-4.7-3-.1 0-.1-.1-.1-.1-1.1-1.2-2-2.6-2.8-4-1.8-8.2-3.4-16.5-5.1-24.8-.1-1.7-.3-3.3-.5-4.9-1.2-8.8-2.8-17.5-4.6-26.1-1.3-4-3-6.5-4.5-10.6-.3-.9-1.2-2.3-1.7-3.2-2.8-2.3-5.2-4.9-7.5-7.6 1.4-2.5 2.9-5 4.5-7.4 2.2-3.3 4.4-6.7 3.2-10.8-.2-.6-.6-.9-1.1-1.1 0-.1-.1-.1-.1-.2-1.2-2.2-3-3.9-5.1-5.4v-.6c0-4.3-3.4-7.2-7.1-8.8-6.9-3.1-14.6-5.1-21.8-7.6-.5-.2-1-.1-1.4.2-.1 0-.1-.1-.2-.1s-.1-.1-.2-.1c-1 .4-1.6 1.8-.4 2.5.4.2.8.5 1.3.7 5.1 9.7 10.7 19.2 16.9 28.3.4.6.9 1.3 1.3 1.9-1.1 1.3-2.3 2.4-3.5 3.4-.6-.5-1.3-.9-2.1-1.1-2.6-.6-5.1.7-7.2 2.3-4.9 3.6.9 9.1 5.4 8.6 2.4-.3 4.2-2.3 4.8-4.5.3-.6.5-1.1.5-1.7v-.8c1.4-1.1 2.7-2.3 3.8-3.6 1.5 2.2 3.1 4.3 4.7 6.3-.7 1.3-1.4 2.7-2.1 4l-1.9 3.1c-5-1.3-12 1.5-9.7 7 .7 1.7 2.2 3.1 4 3.8.3.3.6.4 1 .3 1.2.3 2.4.3 3.6-.1l.6-.3c.5-.1 1-.3 1.5-.5 2.8-1.4 4.4-6.2 3.2-9.3-.1-.4-.9.9-1.2.6 1-2.1 2-4.2 3.1-6.2 1.2 1.4 2.4 2.8 3.8 4 .1.3.2.6.5.8 1.5 1.2 1 3.9.6 6.2l-.2.1c-.3 1.7-.8 3.4-1.8 4.6 0 2.7-1.7 5.1-2.8 7.6-.1.3-.1.5-.3.7h.1c-.6.9-1.1 1.9-1.6 2.8-4.3 5.8-8.3 11.3-8.9 12.3-.2.3-.4.7-.6 1.1-.4 3.1-.3 6.2 1.5 8.7.2.2.4.4.6.7 1.6 1 3.5 1.9 5.3 2.7.2.1.3.1.5.2s.4.2.6.2c.7.4 1.8.9 2.8 1.3.2.1.4.1.6.2.1 0 .2.1.3.1.1 0 .1 0 .2.1.3.3.7.6 1 .9 3 4.3 7.2 8.2 5.3 13.9v.2c-.1.2-.1.3-.2.5-.1.1-.2.2-.2.4-.4.9-.5 1.8-1.1 2.7-.6.8-1.3 1.3-2.2 1.7-1.8.8-.4 3.4 1.4 2.7 1.2-.5 2.2-1.4 3.1-2.4.4-.1.7-.4.9-.8 1-2.1 1.6-4.3 2.2-6.5 1.1-3.1 2.1-6.1 3.2-9.2 1-2.9 2-5.3 1.1-8 .1-.7-.2-1.5-.9-1.7-.5-.5-1.1-.6-1.7-.4-2.6-.2-5 .9-7.5 1.5-.8.1-1.5.2-2 .3-.3 0-.5.1-.7.3-.6-.1-1.1-.2-1.7-.3-1-.3-2-.4-3-.6-.9-.4-1.8-.9-2.7-1.3-.8-.4-2.3-.8-2.9-1.4-.3-.4-.5-.9-.7-1.5 2.4-5.1 5.3-9.8 8.3-14.6 1.3-2.1 2.5-4.2 3.7-6.4 1.8-2.2 3.8-4.3 5.6-6.5.2-.3.4-.5.6-.8.1-.1.2-.2.2-.3 2.9 11.5 5.3 23.2 7.7 34.9.9 7.5 1 14.9 3.8 21.5-.1.2-.1.5 0 .8.7 2.7 1.5 5.6 3.3 7.8.8 1 1.9 1.8 3 2.7.3 3.3 0 6.6-1 9.8 0 .1 0 .3-.1.4-.6.3-1.1.5-1.3.6-4.2 1.6-9 2-13.1.1.1-.8-.3-1.5-1.3-1.6H138c-1.4 0-2.3 1.7-1.1 2.7 5.6 4.4 13.4 3.8 19.6 1 3.2-1.7 14.1-7.1 12.1-11.8zM116.2 93.5c4.2 1.4 10.1 2.7 11.5 6.9-1.7-1-3.4-1.8-4.9-2.7l-8.1-4.7 1.5.5zm4.5 21.7c-5.2-7.6-10-15.6-14.4-23.7 7.3 4 14.8 7.8 21.5 12.5v.3c-1 4-3.2 8.5-6 12.3-.4-.5-.8-.9-1.1-1.4zm2.7 3.9c.6-.8 1.1-1.6 1.7-2.5 1.8-2.9 4.2-6.8 5.5-10.5 1.8 1.4 3.6 3.3 4 5.6.1.5.1 1.1 0 1.6 0 .2-.1.3-.1.5-2 2.3-4.6 4.6-5.1 6.8-.2 1-.4 1.9-.6 2.8-.2.4-.5.7-.7 1.1-.1.2-.2.4-.4.7-1.5-2.1-2.9-4.1-4.3-6.1z"/><path d="M109 61.9c-1.5-4.5-4.5-9.4-8.2-11.5-1.3-.7-2.8-1.2-4.4-1.3-11.9-2.8-30 8.1-27.8 19.6-1.2 7.8 2.5 15 8.3 18.9.1.1.2.2.3.2 4.6 2.9 10.6 3.8 16.6 1.3 6.5-2.7 12.6-9 15.2-15.5.7-2 2-9.3 0-11.7zM168.6 216c-.5-.3-.9-.6-1.4-.9-.2 0-.3 0-.5.1-.6-.7-1.5-1.1-2.5-1.3l-.3-.3c-.8-.5-1.6-1.1-2.4-1.8-1.7-.8-3.2-1.9-4.7-3-.1 0-.1-.1-.1-.1-1.1-1.2-2-2.6-2.8-4-1.8-8.2-3.4-16.5-5.1-24.8-.1-1.7-.3-3.3-.5-4.9-1.2-8.8-2.8-17.5-4.6-26.1-1.3-4-3-6.5-4.5-10.6-.3-.9-1.2-2.3-1.7-3.2-2.8-2.3-5.2-4.9-7.5-7.6 1.4-2.5 2.9-5 4.5-7.4 2.2-3.3 4.4-6.7 3.2-10.8-.2-.6-.6-.9-1.1-1.1 0-.1-.1-.1-.1-.2-1.2-2.2-3-3.9-5.1-5.4v-.6c0-4.3-3.4-7.2-7.1-8.8-6.9-3.1-14.6-5.1-21.8-7.6-.5-.2-1-.1-1.4.2-.1 0-.1-.1-.2-.1s-.1-.1-.2-.1c-1 .4-1.6 1.8-.4 2.5.4.2.8.5 1.3.7 5.1 9.7 10.7 19.2 16.9 28.3.4.6.9 1.3 1.3 1.9-1.1 1.3-2.3 2.4-3.5 3.4-.6-.5-1.3-.9-2.1-1.1-2.6-.6-5.1.7-7.2 2.3-4.9 3.6.9 9.1 5.4 8.6 2.4-.3 4.2-2.3 4.8-4.5.3-.6.5-1.1.5-1.7v-.8c1.4-1.1 2.7-2.3 3.8-3.6 1.5 2.2 3.1 4.3 4.7 6.3-.7 1.3-1.4 2.7-2.1 4l-1.9 3.1c-5-1.3-12 1.5-9.7 7 .7 1.7 2.2 3.1 4 3.8.3.3.6.4 1 .3 1.2.3 2.4.3 3.6-.1l.6-.3c.5-.1 1-.3 1.5-.5 2.8-1.4 4.4-6.2 3.2-9.3-.1-.4-.9.9-1.2.6 1-2.1 2-4.2 3.1-6.2 1.2 1.4 2.4 2.8 3.8 4 .1.3.2.6.5.8 1.5 1.2 1 3.9.6 6.2l-.2.1c-.3 1.7-.8 3.4-1.8 4.6 0 2.7-1.7 5.1-2.8 7.6-.1.3-.1.5-.3.7h.1c-.6.9-1.1 1.9-1.6 2.8-4.3 5.8-8.3 11.3-8.9 12.3-.2.3-.4.7-.6 1.1-.4 3.1-.3 6.2 1.5 8.7.2.2.4.4.6.7 1.6 1 3.5 1.9 5.3 2.7.2.1.3.1.5.2s.4.2.6.2c.7.4 1.8.9 2.8 1.3.2.1.4.1.6.2.1 0 .2.1.3.1.1 0 .1 0 .2.1.3.3.7.6 1 .9 3 4.3 7.2 8.2 5.3 13.9v.2c-.1.2-.1.3-.2.5-.1.1-.2.2-.2.4-.4.9-.5 1.8-1.1 2.7-.6.8-1.3 1.3-2.2 1.7-1.8.8-.4 3.4 1.4 2.7 1.2-.5 2.2-1.4 3.1-2.4.4-.1.7-.4.9-.8 1-2.1 1.6-4.3 2.2-6.5 1.1-3.1 2.1-6.1 3.2-9.2 1-2.9 2-5.3 1.1-8 .1-.7-.2-1.5-.9-1.7-.5-.5-1.1-.6-1.7-.4-2.6-.2-5 .9-7.5 1.5-.8.1-1.5.2-2 .3-.3 0-.5.1-.7.3-.6-.1-1.1-.2-1.7-.3-1-.3-2-.4-3-.6-.9-.4-1.8-.9-2.7-1.3-.8-.4-2.3-.8-2.9-1.4-.3-.4-.5-.9-.7-1.5 2.4-5.1 5.3-9.8 8.3-14.6 1.3-2.1 2.5-4.2 3.7-6.4 1.8-2.2 3.8-4.3 5.6-6.5.2-.3.4-.5.6-.8.1-.1.2-.2.2-.3 2.9 11.5 5.3 23.2 7.7 34.9.9 7.5 1 14.9 3.8 21.5-.1.2-.1.5 0 .8.7 2.7 1.5 5.6 3.3 7.8.8 1 1.9 1.8 3 2.7.3 3.3 0 6.6-1 9.8 0 .1 0 .3-.1.4-.6.3-1.1.5-1.3.6-4.2 1.6-9 2-13.1.1.1-.8-.3-1.5-1.3-1.6H138c-1.4 0-2.3 1.7-1.1 2.7 5.6 4.4 13.4 3.8 19.6 1 3.2-1.7 14.1-7.1 12.1-11.8zM116.2 93.5c4.2 1.4 10.1 2.7 11.5 6.9-1.7-1-3.4-1.8-4.9-2.7l-8.1-4.7 1.5.5zm4.5 21.7c-5.2-7.6-10-15.6-14.4-23.7 7.3 4 14.8 7.8 21.5 12.5v.3c-1 4-3.2 8.5-6 12.3-.4-.5-.8-.9-1.1-1.4zm2.7 3.9c.6-.8 1.1-1.6 1.7-2.5 1.8-2.9 4.2-6.8 5.5-10.5 1.8 1.4 3.6 3.3 4 5.6.1.5.1 1.1 0 1.6 0 .2-.1.3-.1.5-2 2.3-4.6 4.6-5.1 6.8-.2 1-.4 1.9-.6 2.8-.2.4-.5.7-.7 1.1-.1.2-.2.4-.4.7-1.5-2.1-2.9-4.1-4.3-6.1z"/></g><g class="frame" id="frame_3"><path d="M106 55.9c-1.5-4.5-4.5-9.4-8.2-11.5-1.3-.7-2.8-1.2-4.4-1.3-11.9-2.8-30 8.1-27.8 19.6-1.2 7.8 2.5 15 8.3 18.9.1.1.2.2.3.2 4.6 2.9 10.6 3.8 16.6 1.3 6.5-2.7 12.6-9 15.2-15.5.7-2 2-9.3 0-11.7zM89.8 215c.1-.1.3-.1.4-.2.1-.1.2-.3.2-.5.4-.5.4-1.2.1-1.7-.3-2.6-1.8-4.7-2.8-7.1-.3-.8-.5-1.5-.6-1.9-.1-.3-.2-.5-.4-.7v-2c-1.3-.9-2.3-2-3.2-3.3 0 .2-.1.3-.1.5-.3.8-.6 1.9-.7 3 0 .2-.1.4-.1.6 0 .1-.1.2-.1.3v.2c-.2.4-.5.8-.7 1.2-3.7 3.7-6.8 8.6-12.8 7.7h-.2c-.2 0-.4-.1-.5-.1-.1-.1-.3-.1-.4-.2-1-.2-1.9-.2-2.8-.6-.9-.4-1.5-1.1-2.1-1.8-1.1-1.6-3.4.3-2.4 1.9.7 1.1 1.7 2 2.9 2.6.2.3.5.6 1 .7 2.3.6 4.5.8 6.8 1l9.6 1.5c2.5.4 4.7.8 6.8.2.6-.5 1.4-.9 2.1-1.3z"/><path d="M211.6 207c-.8-7.9-1.8-15.9-5.9-22.8-.3-1.3-1-2.4-2.2-2.8-.5.1-1 .3-1.6.4-.1.1-.2.3-.3.4-.9 0-1.9.3-2.7.9h-.4c-1 .2-2 .4-3 .5-1.7.7-3.6 1-5.5 1.3h-.2c-1.4-.1-2.8-.3-4.2-.6v.6c-1.6 0-3.3.2-5 .4-.4 0-.8.1-1.2.1l-10.4-.8c-2.3-.2-5.6-.9-8-.3-.5-.6-1-1.4-1.6-2.5-.3-.5-.6-1-.8-1.6-.9-2.4-1.8-4.7-2.8-7.1.1-.2.1-.5 0-.8l-.3-.9c-.5-1.7-1.1-4.1-2-5.9-.1-.4-.3-.7-.4-1.1-.6-2.4-1.3-4.9-2.1-7.3-1.7-5.4-3.5-13.4-8.3-17.3-.1.1-.2.3-.4.4-2-3.2-4-6.5-6-9.7-3.7-5.9-7.3-11.7-10.8-17.7v-.1c-1.8-3.3-3.5-6.7-5.4-9.9l-2.4-4.8c-2.2-3-4.1-6.1-5.6-9.5-1.1-1.7-2.3-3.2-3.4-4.5 11 2.6 22.1 5.8 31.2 12.7 3.6 2.7 6.3 6 8.8 9.4-.1.3-.1.5 0 .8 1.4 3.5 3.8 5.7 6.1 8.6 3 3.7 4.9 8.1 6.6 12.6-1.5 2.4-1.5 5.6.9 7.4 1.1 2.4 4.2 3.6 6.7 1.4.3-.3.6-.6.8-1 .6-.5 1-1.1 1.2-1.8.5-.5.9-1 1.2-1.7 1.9-4.6-2.4-7.9-6.5-7.1 0-.1-.1-.1-.1-.2l-1.5-1.5c-1-4.1-3.3-7.2-6.5-10.6-1.8-2-3.4-4.1-4.9-6.3.1-.8-.3-1.6-1.3-1.8-2.2-3.2-4.5-6.3-7.7-8.9-11.2-9.4-25.6-12.8-39.6-16-.5-.1-.9 0-1.3.3-1-1-3.1-.2-2.5 1.4 7.1 20.6 7.2 43.8-2.2 63.4-1.3 2.3-2.7 4.6-4.2 6.9-3.5-2.9-9.1 1.4-10.5 4.9-.8 2.1-.4 4 .8 5.5 1.8 3.4 7.6 3.7 10.6 1.9l.1-.1c.8-.4 1.5-.8 2.1-1.3-2.7 4.8-4.7 10.3-6.7 15.3-.8 2-1.6 4.1-2.3 6.1-2 4.8-3.7 9.7-4.8 14.8-.4 1.9 2.4 2.7 2.9.8 1.3-4.4 2.6-9 4.1-13.6 3-7.8 6.9-15.3 11.1-22.2 1.8-2.9 4.1-5.3 6.6-7.4 2.9-1.5 6.2-2.6 9.1-3.9 2.1-.9 4.3-1.9 6.4-2.8 1.6-.6 3.3-1.3 4.9-2 1-.7 2-1.2 3.1-1.5 1.6-1.3 3.7-1.9 6.3-1.4 5.9 1.1 8 7.7 9.6 12.7 1.9 5.7 4.1 11.3 6.2 17 1.9 5 3.8 10 6.9 14.2l23.2-.3c1.1.1 2.2.2 3.4.3.9.3 1.8.5 2.7.6 1 .1 2.1 0 3.2-.2h.9c1.9 1.5 3.5 3.3 4.9 5.2 2.1.9 3.7 3.2 3.3 5.6l.3.3c.1-.2.2-.3.2-.5 1.3 2.3 2.5 4.7 3.7 7.1l-3.8 1.5c-1 .4-1.3 1.6-.9 2.3-1.6.8-1 3.4.9 2.9 2.8-.8 5.4-2.2 7.7-4 .5-.4.6-1 .3-1.5.7 0 1.3-.5 1.2-1.3zm-77.7-66c-.1-.1-.2-.1-.3-.2-.2.1-.3.2-.5.3v.2l-2.4 1.2c-.2.1-.3.2-.5.4-.2.1-.4.1-.7.2-1.3.6-2.6 1.2-3.9 1.7-.1.1-.3.1-.4.2-.3.2-.6.3-1 .5-.2.1-.4.1-.6.2-1.1.4-2.1.8-3.2 1.1-3.7 1.4-7.3 2.9-10.6 4.9-3.3 1.1-6.6 2.4-9.8 3.8-1.3.6-.8 2.3.3 2.7-.3.3-.6.7-.9 1 .1-.9 0-1.8-.6-2.8-.6-1.1-1.4-2-2.2-2.6 1.6-2.5 3.1-5.1 4.3-7.8 2-3.6 3.9-7.3 5.4-11.1-.4-.1-.7-.2-1.1-.4 4.6-16 3.9-33.5-.8-49.7 1 1.1 1.8 2.2 2.5 3.4.2.2.4.5.7.8 1 1.4 2.3 3.3 3.4 5.3 1.8 2.4 3.4 4.8 4.9 7.4 2.2 4.3 4.6 8.6 7 12.8 3 5.7 6.1 11.4 9.1 17.1 1.5 2.8 2.9 5.5 4.4 8.3-.7.4-1.6.7-2.5 1.1z"/><path d="M106 55.9c-1.5-4.5-4.5-9.4-8.2-11.5-1.3-.7-2.8-1.2-4.4-1.3-11.9-2.8-30 8.1-27.8 19.6-1.2 7.8 2.5 15 8.3 18.9.1.1.2.2.3.2 4.6 2.9 10.6 3.8 16.6 1.3 6.5-2.7 12.6-9 15.2-15.5.7-2 2-9.3 0-11.7zM89.8 215c.1-.1.3-.1.4-.2.1-.1.2-.3.2-.5.4-.5.4-1.2.1-1.7-.3-2.6-1.8-4.7-2.8-7.1-.3-.8-.5-1.5-.6-1.9-.1-.3-.2-.5-.4-.7v-2c-1.3-.9-2.3-2-3.2-3.3 0 .2-.1.3-.1.5-.3.8-.6 1.9-.7 3 0 .2-.1.4-.1.6 0 .1-.1.2-.1.3v.2c-.2.4-.5.8-.7 1.2-3.7 3.7-6.8 8.6-12.8 7.7h-.2c-.2 0-.4-.1-.5-.1-.1-.1-.3-.1-.4-.2-1-.2-1.9-.2-2.8-.6-.9-.4-1.5-1.1-2.1-1.8-1.1-1.6-3.4.3-2.4 1.9.7 1.1 1.7 2 2.9 2.6.2.3.5.6 1 .7 2.3.6 4.5.8 6.8 1l9.6 1.5c2.5.4 4.7.8 6.8.2.6-.5 1.4-.9 2.1-1.3z"/><path d="M211.6 207c-.8-7.9-1.8-15.9-5.9-22.8-.3-1.3-1-2.4-2.2-2.8-.5.1-1 .3-1.6.4-.1.1-.2.3-.3.4-.9 0-1.9.3-2.7.9h-.4c-1 .2-2 .4-3 .5-1.7.7-3.6 1-5.5 1.3h-.2c-1.4-.1-2.8-.3-4.2-.6v.6c-1.6 0-3.3.2-5 .4-.4 0-.8.1-1.2.1l-10.4-.8c-2.3-.2-5.6-.9-8-.3-.5-.6-1-1.4-1.6-2.5-.3-.5-.6-1-.8-1.6-.9-2.4-1.8-4.7-2.8-7.1.1-.2.1-.5 0-.8l-.3-.9c-.5-1.7-1.1-4.1-2-5.9-.1-.4-.3-.7-.4-1.1-.6-2.4-1.3-4.9-2.1-7.3-1.7-5.4-3.5-13.4-8.3-17.3-.1.1-.2.3-.4.4-2-3.2-4-6.5-6-9.7-3.7-5.9-7.3-11.7-10.8-17.7v-.1c-1.8-3.3-3.5-6.7-5.4-9.9l-2.4-4.8c-2.2-3-4.1-6.1-5.6-9.5-1.1-1.7-2.3-3.2-3.4-4.5 11 2.6 22.1 5.8 31.2 12.7 3.6 2.7 6.3 6 8.8 9.4-.1.3-.1.5 0 .8 1.4 3.5 3.8 5.7 6.1 8.6 3 3.7 4.9 8.1 6.6 12.6-1.5 2.4-1.5 5.6.9 7.4 1.1 2.4 4.2 3.6 6.7 1.4.3-.3.6-.6.8-1 .6-.5 1-1.1 1.2-1.8.5-.5.9-1 1.2-1.7 1.9-4.6-2.4-7.9-6.5-7.1 0-.1-.1-.1-.1-.2l-1.5-1.5c-1-4.1-3.3-7.2-6.5-10.6-1.8-2-3.4-4.1-4.9-6.3.1-.8-.3-1.6-1.3-1.8-2.2-3.2-4.5-6.3-7.7-8.9-11.2-9.4-25.6-12.8-39.6-16-.5-.1-.9 0-1.3.3-1-1-3.1-.2-2.5 1.4 7.1 20.6 7.2 43.8-2.2 63.4-1.3 2.3-2.7 4.6-4.2 6.9-3.5-2.9-9.1 1.4-10.5 4.9-.8 2.1-.4 4 .8 5.5 1.8 3.4 7.6 3.7 10.6 1.9l.1-.1c.8-.4 1.5-.8 2.1-1.3-2.7 4.8-4.7 10.3-6.7 15.3-.8 2-1.6 4.1-2.3 6.1-2 4.8-3.7 9.7-4.8 14.8-.4 1.9 2.4 2.7 2.9.8 1.3-4.4 2.6-9 4.1-13.6 3-7.8 6.9-15.3 11.1-22.2 1.8-2.9 4.1-5.3 6.6-7.4 2.9-1.5 6.2-2.6 9.1-3.9 2.1-.9 4.3-1.9 6.4-2.8 1.6-.6 3.3-1.3 4.9-2 1-.7 2-1.2 3.1-1.5 1.6-1.3 3.7-1.9 6.3-1.4 5.9 1.1 8 7.7 9.6 12.7 1.9 5.7 4.1 11.3 6.2 17 1.9 5 3.8 10 6.9 14.2l23.2-.3c1.1.1 2.2.2 3.4.3.9.3 1.8.5 2.7.6 1 .1 2.1 0 3.2-.2h.9c1.9 1.5 3.5 3.3 4.9 5.2 2.1.9 3.7 3.2 3.3 5.6l.3.3c.1-.2.2-.3.2-.5 1.3 2.3 2.5 4.7 3.7 7.1l-3.8 1.5c-1 .4-1.3 1.6-.9 2.3-1.6.8-1 3.4.9 2.9 2.8-.8 5.4-2.2 7.7-4 .5-.4.6-1 .3-1.5.7 0 1.3-.5 1.2-1.3zm-77.7-66c-.1-.1-.2-.1-.3-.2-.2.1-.3.2-.5.3v.2l-2.4 1.2c-.2.1-.3.2-.5.4-.2.1-.4.1-.7.2-1.3.6-2.6 1.2-3.9 1.7-.1.1-.3.1-.4.2-.3.2-.6.3-1 .5-.2.1-.4.1-.6.2-1.1.4-2.1.8-3.2 1.1-3.7 1.4-7.3 2.9-10.6 4.9-3.3 1.1-6.6 2.4-9.8 3.8-1.3.6-.8 2.3.3 2.7-.3.3-.6.7-.9 1 .1-.9 0-1.8-.6-2.8-.6-1.1-1.4-2-2.2-2.6 1.6-2.5 3.1-5.1 4.3-7.8 2-3.6 3.9-7.3 5.4-11.1-.4-.1-.7-.2-1.1-.4 4.6-16 3.9-33.5-.8-49.7 1 1.1 1.8 2.2 2.5 3.4.2.2.4.5.7.8 1 1.4 2.3 3.3 3.4 5.3 1.8 2.4 3.4 4.8 4.9 7.4 2.2 4.3 4.6 8.6 7 12.8 3 5.7 6.1 11.4 9.1 17.1 1.5 2.8 2.9 5.5 4.4 8.3-.7.4-1.6.7-2.5 1.1z"/></g></g></svg>