<svg xmlns="http://www.w3.org/2000/svg" xmlns:xlink="http://www.w3.org/1999/xlink" viewBox="0 0 512 512"><symbol class="triangle" id="a" viewBox="-3.1 -2.7 6.2 5.4"><path d="M3.1 2.6l-3-5.3h-.2l-3.1 5.3c0 .1 0 .1.1.1H3c.1 0 .1 0 .1-.1z" fill="#9088ff"/></symbol><g class="triangle-ring"><use xlink:href="#a" width="6.2" height="5.4" x="-3.1" y="-2.7" transform="matrix(-4.3741 0 0 4.3741 256 22.333)" overflow="visible"/><use xlink:href="#a" width="6.2" height="5.4" x="-3.1" y="-2.7" transform="scale(-4.374 4.374) rotate(-11.225 -3.286 353.746)" overflow="visible"/><use xlink:href="#a" width="6.2" height="5.4" x="-3.1" y="-2.7" transform="scale(-4.3741 4.3741) rotate(-22.452 -16.4 203.413)" overflow="visible"/><use xlink:href="#a" width="6.2" height="5.4" x="-3.1" y="-2.7" transform="matrix(-3.64 -2.4256 -2.4256 3.64 385.574 61.55)" overflow="visible"/><use xlink:href="#a" width="6.2" height="5.4" x="-3.1" y="-2.7" transform="matrix(-3.0982 -3.0878 -3.0878 3.0982 420.95 90.496)" overflow="visible"/><use xlink:href="#a" width="6.2" height="5.4" x="-3.1" y="-2.7" transform="scale(-4.3741 4.3741) rotate(-56.129 -24.474 110.86)" overflow="visible"/><use xlink:href="#a" width="6.2" height="5.4" x="-3.1" y="-2.7" transform="scale(-4.3741 4.3741) rotate(-67.355 -25.432 99.89)" overflow="visible"/><use xlink:href="#a" width="6.2" height="5.4" x="-3.1" y="-2.7" transform="matrix(-.8659 -4.2876 -4.2876 .8659 485.042 209.74)" overflow="visible"/><use xlink:href="#a" width="6.2" height="5.4" x="-3.1" y="-2.7" transform="matrix(-.01466 -4.3741 -4.3741 .01466 489.67 255.218)" overflow="visible"/><use xlink:href="#a" width="6.2" height="5.4" x="-3.1" y="-2.7" transform="scale(4.3741 -4.3741) rotate(78.967 97.203 32.966)" overflow="visible"/><use xlink:href="#a" width="6.2" height="5.4" x="-3.1" y="-2.7" transform="scale(4.3742 -4.3742) rotate(67.741 112.652 41.043)" overflow="visible"/><use xlink:href="#a" width="6.2" height="5.4" x="-3.1" y="-2.7" transform="scale(4.374 -4.374) rotate(56.514 133.404 51.892)" overflow="visible"/><use xlink:href="#a" width="6.2" height="5.4" x="-3.1" y="-2.7" transform="scale(4.3741 -4.3741) rotate(45.288 163.438 67.595)" overflow="visible"/><use xlink:href="#a" width="6.2" height="5.4" x="-3.1" y="-2.7" transform="scale(4.374 -4.374) rotate(34.062 211.99 92.977)" overflow="visible"/><use xlink:href="#a" width="6.2" height="5.4" x="-3.1" y="-2.7" transform="scale(4.3742 -4.3742) rotate(22.836 306.405 142.34)" overflow="visible"/><use xlink:href="#a" width="6.2" height="5.4" x="-3.1" y="-2.7" transform="scale(4.3741 -4.3741) rotate(11.61 579.822 285.284)" overflow="visible"/><use xlink:href="#a" width="6.2" height="5.4" x="-3.1" y="-2.7" transform="matrix(4.374 -.02937 -.02937 -4.374 257.569 489.661)" overflow="visible"/><use xlink:href="#a" width="6.2" height="5.4" x="-3.1" y="-2.7" transform="matrix(4.2961 .8227 .8227 -4.2961 212.05 485.496)" overflow="visible"/><use xlink:href="#a" width="6.2" height="5.4" x="-3.1" y="-2.7" transform="matrix(4.0537 1.6433 1.6433 -4.0537 168.213 472.55)" overflow="visible"/><use xlink:href="#a" width="6.2" height="5.4" x="-3.1" y="-2.7" transform="matrix(3.6562 2.4011 2.4011 -3.6562 127.735 451.316)" overflow="visible"/><use xlink:href="#a" width="6.2" height="5.4" x="-3.1" y="-2.7" transform="matrix(3.1188 3.0669 3.0669 -3.1188 92.165 422.608)" overflow="visible"/><use xlink:href="#a" width="6.2" height="5.4" x="-3.1" y="-2.7" transform="matrix(2.4621 3.6154 3.6154 -2.4621 62.865 387.525)" overflow="visible"/><use xlink:href="#a" width="6.2" height="5.4" x="-3.1" y="-2.7" transform="scale(4.374 -4.374) rotate(-66.971 -55.35 -46.79)" overflow="visible"/><use xlink:href="#a" width="6.2" height="5.4" x="-3.1" y="-2.7" transform="matrix(.8947 4.2816 4.2816 -.8947 27.274 303.796)" overflow="visible"/><use xlink:href="#a" width="6.2" height="5.4" x="-3.1" y="-2.7" transform="matrix(.04406 4.3739 4.3739 -.04406 22.345 258.353)" overflow="visible"/><use xlink:href="#a" width="6.2" height="5.4" x="-3.1" y="-2.7" transform="matrix(-.8083 4.2988 4.2988 .8083 26.358 212.82)" overflow="visible"/><use xlink:href="#a" width="6.2" height="5.4" x="-3.1" y="-2.7" transform="matrix(-1.6297 4.0592 4.0592 1.6297 39.157 168.94)" overflow="visible"/><use xlink:href="#a" width="6.2" height="5.4" x="-3.1" y="-2.7" transform="scale(-4.3742 4.3742) rotate(56.899 -33.974 1.964)" overflow="visible"/><use xlink:href="#a" width="6.2" height="5.4" x="-3.1" y="-2.7" transform="matrix(-3.0564 3.1291 3.1291 3.0564 88.843 92.726)" overflow="visible"/><use xlink:href="#a" width="6.2" height="5.4" x="-3.1" y="-2.7" transform="matrix(-3.6071 2.4742 2.4742 3.6071 123.827 63.307)" overflow="visible"/><use xlink:href="#a" width="6.2" height="5.4" x="-3.1" y="-2.7" transform="matrix(-4.0198 1.7246 1.7246 4.0198 163.869 41.263)" overflow="visible"/><use xlink:href="#a" width="6.2" height="5.4" x="-3.1" y="-2.7" transform="matrix(-4.2786 .9091 .9091 4.2786 207.436 27.436)" overflow="visible"/></g></svg>