<svg xmlns="http://www.w3.org/2000/svg" xmlns:xlink="http://www.w3.org/1999/xlink" viewBox="0 0 512 512"><symbol class="triangle" id="a" viewBox="-4.7 -4.1 9.4 8.1"><path d="M-4.7-3.9l4.6 8c.1 0 .1 0 .2-.1l4.6-8c0-.1 0-.1-.1-.1h-9.2c-.1 0-.1.1-.1.2z" fill="#9088ff"/></symbol><g class="triangle-ring"><use xlink:href="#a" width="9.4" height="8.1" x="-4.7" y="-4.1" transform="matrix(1 0 0 -1 256 10)" overflow="visible"/><use xlink:href="#a" width="9.4" height="8.1" x="-4.7" y="-4.1" transform="matrix(.9983 .05768 .05768 -.9983 270.19 10.41)" overflow="visible"/><use xlink:href="#a" width="9.4" height="8.1" x="-4.7" y="-4.1" transform="scale(1 -1) rotate(-6.615 41.492 -2465.773)" overflow="visible"/><use xlink:href="#a" width="9.4" height="8.1" x="-4.7" y="-4.1" transform="scale(1 -1) rotate(-9.922 70.404 -1725.647)" overflow="visible"/><use xlink:href="#a" width="9.4" height="8.1" x="-4.7" y="-4.1" transform="scale(1 -1) rotate(-13.226 84.867 -1355.062)" overflow="visible"/><use xlink:href="#a" width="9.4" height="8.1" x="-4.7" y="-4.1" transform="scale(1 -1) rotate(-16.536 93.598 -1131.9)" overflow="visible"/><use xlink:href="#a" width="9.4" height="8.1" x="-4.7" y="-4.1" transform="scale(1 -1) rotate(-19.841 99.416 -982.896)" overflow="visible"/><use xlink:href="#a" width="9.4" height="8.1" x="-4.7" y="-4.1" transform="scale(1 -1) rotate(-23.147 103.583 -876.027)" overflow="visible"/><use xlink:href="#a" width="9.4" height="8.1" x="-4.7" y="-4.1" transform="scale(1 -1) rotate(-26.455 106.726 -795.546)" overflow="visible"/><use xlink:href="#a" width="9.4" height="8.1" x="-4.7" y="-4.1" transform="scale(1 -1) rotate(-29.762 109.183 -732.7)" overflow="visible"/><use xlink:href="#a" width="9.4" height="8.1" x="-4.7" y="-4.1" transform="scale(1 -1) rotate(-33.067 111.157 -682.232)" overflow="visible"/><use xlink:href="#a" width="9.4" height="8.1" x="-4.7" y="-4.1" transform="scale(1 -1) rotate(-36.378 112.79 -640.561)" overflow="visible"/><use xlink:href="#a" width="9.4" height="8.1" x="-4.7" y="-4.1" transform="scale(1 -1) rotate(-39.681 114.14 -605.768)" overflow="visible"/><use xlink:href="#a" width="9.4" height="8.1" x="-4.7" y="-4.1" transform="scale(1 -1) rotate(-42.99 115.3 -576.002)" overflow="visible"/><use xlink:href="#a" width="9.4" height="8.1" x="-4.7" y="-4.1" transform="scale(1 -1) rotate(-46.297 116.31 -550.41)" overflow="visible"/><use xlink:href="#a" width="9.4" height="8.1" x="-4.7" y="-4.1" transform="scale(1 -1) rotate(-49.603 117.176 -527.98)" overflow="visible"/><use xlink:href="#a" width="9.4" height="8.1" x="-4.7" y="-4.1" transform="scale(1 -1) rotate(-52.909 117.946 -508.231)" overflow="visible"/><use xlink:href="#a" width="9.4" height="8.1" x="-4.7" y="-4.1" transform="scale(1 -1) rotate(-56.218 118.65 -490.664)" overflow="visible"/><use xlink:href="#a" width="9.4" height="8.1" x="-4.7" y="-4.1" transform="scale(1 -1) rotate(-59.522 119.254 -474.875)" overflow="visible"/><use xlink:href="#a" width="9.4" height="8.1" x="-4.7" y="-4.1" transform="scale(1 -1) rotate(-62.833 119.815 -460.544)" overflow="visible"/><use xlink:href="#a" width="9.4" height="8.1" x="-4.7" y="-4.1" transform="scale(1 -1) rotate(-66.139 120.329 -447.59)" overflow="visible"/><use xlink:href="#a" width="9.4" height="8.1" x="-4.7" y="-4.1" transform="scale(1 -1) rotate(-69.445 120.79 -435.717)" overflow="visible"/><use xlink:href="#a" width="9.4" height="8.1" x="-4.7" y="-4.1" transform="scale(1 -1) rotate(-72.752 121.217 -424.78)" overflow="visible"/><use xlink:href="#a" width="9.4" height="8.1" x="-4.7" y="-4.1" transform="scale(1 -1) rotate(-76.06 121.616 -414.673)" overflow="visible"/><use xlink:href="#a" width="9.4" height="8.1" x="-4.7" y="-4.1" transform="scale(1 -1) rotate(-79.368 121.983 -405.272)" overflow="visible"/><use xlink:href="#a" width="9.4" height="8.1" x="-4.7" y="-4.1" transform="scale(1 -1) rotate(-82.675 122.326 -396.517)" overflow="visible"/><use xlink:href="#a" width="9.4" height="8.1" x="-4.7" y="-4.1" transform="matrix(.07012 .9975 .9975 -.07012 501.394 238.75)" overflow="visible"/><use xlink:href="#a" width="9.4" height="8.1" x="-4.7" y="-4.1" transform="matrix(.01246 .9999 .9999 -.01246 501.98 252.934)" overflow="visible"/><use xlink:href="#a" width="9.4" height="8.1" x="-4.7" y="-4.1" transform="matrix(-.04524 .999 .999 .04524 501.748 267.128)" overflow="visible"/><use xlink:href="#a" width="9.4" height="8.1" x="-4.7" y="-4.1" transform="scale(-1 1) rotate(84.1 -406.276 -136.913)" overflow="visible"/><use xlink:href="#a" width="9.4" height="8.1" x="-4.7" y="-4.1" transform="scale(-1 1) rotate(80.793 -422.967 -145.422)" overflow="visible"/><use xlink:href="#a" width="9.4" height="8.1" x="-4.7" y="-4.1" transform="scale(-1 1) rotate(77.484 -440.839 -154.542)" overflow="visible"/><use xlink:href="#a" width="9.4" height="8.1" x="-4.7" y="-4.1" transform="scale(-1 1) rotate(74.181 -460.012 -164.308)" overflow="visible"/><use xlink:href="#a" width="9.4" height="8.1" x="-4.7" y="-4.1" transform="scale(-1 1) rotate(70.871 -480.715 -174.88)" overflow="visible"/><use xlink:href="#a" width="9.4" height="8.1" x="-4.7" y="-4.1" transform="scale(-1 1) rotate(67.567 -503.19 -186.328)" overflow="visible"/><use xlink:href="#a" width="9.4" height="8.1" x="-4.7" y="-4.1" transform="scale(-1 1) rotate(64.26 -527.65 -198.803)" overflow="visible"/><use xlink:href="#a" width="9.4" height="8.1" x="-4.7" y="-4.1" transform="scale(-1 1) rotate(60.954 -554.528 -212.503)" overflow="visible"/><use xlink:href="#a" width="9.4" height="8.1" x="-4.7" y="-4.1" transform="scale(-1 1) rotate(57.645 -584.107 -227.603)" overflow="visible"/><use xlink:href="#a" width="9.4" height="8.1" x="-4.7" y="-4.1" transform="scale(-1 1) rotate(54.339 -617.02 -244.379)" overflow="visible"/><use xlink:href="#a" width="9.4" height="8.1" x="-4.7" y="-4.1" transform="scale(-1 1) rotate(51.031 -653.853 -263.166)" overflow="visible"/><use xlink:href="#a" width="9.4" height="8.1" x="-4.7" y="-4.1" transform="scale(-1 1) rotate(47.724 -695.44 -284.378)" overflow="visible"/><use xlink:href="#a" width="9.4" height="8.1" x="-4.7" y="-4.1" transform="scale(-1 1) rotate(44.417 -742.768 -308.518)" overflow="visible"/><use xlink:href="#a" width="9.4" height="8.1" x="-4.7" y="-4.1" transform="scale(-1 1) rotate(41.112 -797.377 -336.349)" overflow="visible"/><use xlink:href="#a" width="9.4" height="8.1" x="-4.7" y="-4.1" transform="scale(-1 1) rotate(37.806 -860.976 -368.774)" overflow="visible"/><use xlink:href="#a" width="9.4" height="8.1" x="-4.7" y="-4.1" transform="scale(-1 1) rotate(34.497 -936.366 -407.237)" overflow="visible"/><use xlink:href="#a" width="9.4" height="8.1" x="-4.7" y="-4.1" transform="scale(-1 1) rotate(31.19 -1027.239 -453.584)" overflow="visible"/><use xlink:href="#a" width="9.4" height="8.1" x="-4.7" y="-4.1" transform="scale(-1 1) rotate(27.885 -1139.027 -510.57)" overflow="visible"/><use xlink:href="#a" width="9.4" height="8.1" x="-4.7" y="-4.1" transform="scale(-1 1) rotate(24.576 -1280.349 -582.654)" overflow="visible"/><use xlink:href="#a" width="9.4" height="8.1" x="-4.7" y="-4.1" transform="scale(-1 1) rotate(21.272 -1464.548 -676.565)" overflow="visible"/><use xlink:href="#a" width="9.4" height="8.1" x="-4.7" y="-4.1" transform="scale(-1 1) rotate(17.962 -1716.082 -804.871)" overflow="visible"/><use xlink:href="#a" width="9.4" height="8.1" x="-4.7" y="-4.1" transform="scale(-1 1) rotate(14.655 -2079.909 -990.42)" overflow="visible"/><use xlink:href="#a" width="9.4" height="8.1" x="-4.7" y="-4.1" transform="scale(-1 1) rotate(11.35 -2653.877 -1283.062)" overflow="visible"/><use xlink:href="#a" width="9.4" height="8.1" x="-4.7" y="-4.1" transform="scale(-1 1) rotate(8.042 -3698.63 -1815.891)" overflow="visible"/><use xlink:href="#a" width="9.4" height="8.1" x="-4.7" y="-4.1" transform="matrix(-.9966 .08255 .08255 .9966 276.308 501.16)" overflow="visible"/><use xlink:href="#a" width="9.4" height="8.1" x="-4.7" y="-4.1" transform="matrix(-.9997 .02493 .02493 .9997 262.132 501.924)" overflow="visible"/><use xlink:href="#a" width="9.4" height="8.1" x="-4.7" y="-4.1" transform="matrix(-.9995 -.03278 -.03278 .9995 247.936 501.868)" overflow="visible"/><use xlink:href="#a" width="9.4" height="8.1" x="-4.7" y="-4.1" transform="scale(-1 1) rotate(-5.185 5415.018 2831.721)" overflow="visible"/><use xlink:href="#a" width="9.4" height="8.1" x="-4.7" y="-4.1" transform="scale(-1 1) rotate(-8.494 3252.141 1728.785)" overflow="visible"/><use xlink:href="#a" width="9.4" height="8.1" x="-4.7" y="-4.1" transform="scale(-1 1) rotate(-11.8 2300.836 1243.62)" overflow="visible"/><use xlink:href="#a" width="9.4" height="8.1" x="-4.7" y="-4.1" transform="scale(-1 1) rotate(-15.106 1765.035 970.38)" overflow="visible"/><use xlink:href="#a" width="9.4" height="8.1" x="-4.7" y="-4.1" transform="scale(-1 1) rotate(-18.415 1420.43 794.662)" overflow="visible"/><use xlink:href="#a" width="9.4" height="8.1" x="-4.7" y="-4.1" transform="scale(-1 1) rotate(-21.722 1180.238 672.167)" overflow="visible"/><use xlink:href="#a" width="9.4" height="8.1" x="-4.7" y="-4.1" transform="scale(-1 1) rotate(-25.025 1003.05 581.776)" overflow="visible"/><use xlink:href="#a" width="9.4" height="8.1" x="-4.7" y="-4.1" transform="scale(-1 1) rotate(-28.333 866.375 512.09)" overflow="visible"/><use xlink:href="#a" width="9.4" height="8.1" x="-4.7" y="-4.1" transform="scale(-1 1) rotate(-31.64 757.807 456.719)" overflow="visible"/><use xlink:href="#a" width="9.4" height="8.1" x="-4.7" y="-4.1" transform="scale(-1 1) rotate(-34.946 669.385 411.624)" overflow="visible"/><use xlink:href="#a" width="9.4" height="8.1" x="-4.7" y="-4.1" transform="scale(-1 1) rotate(-38.255 595.685 374.053)" overflow="visible"/><use xlink:href="#a" width="9.4" height="8.1" x="-4.7" y="-4.1" transform="scale(-1 1) rotate(-41.562 533.448 342.32)" overflow="visible"/><use xlink:href="#a" width="9.4" height="8.1" x="-4.7" y="-4.1" transform="scale(-1 1) rotate(-44.87 479.92 315.025)" overflow="visible"/><use xlink:href="#a" width="9.4" height="8.1" x="-4.7" y="-4.1" transform="scale(-1 1) rotate(-48.174 433.443 291.307)" overflow="visible"/><use xlink:href="#a" width="9.4" height="8.1" x="-4.7" y="-4.1" transform="scale(-1 1) rotate(-51.48 392.602 270.478)" overflow="visible"/><use xlink:href="#a" width="9.4" height="8.1" x="-4.7" y="-4.1" transform="scale(-1 1) rotate(-54.787 356.364 252.004)" overflow="visible"/><use xlink:href="#a" width="9.4" height="8.1" x="-4.7" y="-4.1" transform="scale(-1 1) rotate(-58.095 323.941 235.472)" overflow="visible"/><use xlink:href="#a" width="9.4" height="8.1" x="-4.7" y="-4.1" transform="scale(-1 1) rotate(-61.4 294.721 220.564)" overflow="visible"/><use xlink:href="#a" width="9.4" height="8.1" x="-4.7" y="-4.1" transform="scale(-1 1) rotate(-64.711 268.185 207.04)" overflow="visible"/><use xlink:href="#a" width="9.4" height="8.1" x="-4.7" y="-4.1" transform="scale(-1 1) rotate(-68.019 243.999 194.71)" overflow="visible"/><use xlink:href="#a" width="9.4" height="8.1" x="-4.7" y="-4.1" transform="scale(-1 1) rotate(-71.324 221.805 183.392)" overflow="visible"/><use xlink:href="#a" width="9.4" height="8.1" x="-4.7" y="-4.1" transform="scale(-1 1) rotate(-74.627 201.322 172.937)" overflow="visible"/><use xlink:href="#a" width="9.4" height="8.1" x="-4.7" y="-4.1" transform="scale(-1 1) rotate(-77.936 182.314 163.248)" overflow="visible"/><use xlink:href="#a" width="9.4" height="8.1" x="-4.7" y="-4.1" transform="scale(-1 1) rotate(-81.245 164.625 154.232)" overflow="visible"/><use xlink:href="#a" width="9.4" height="8.1" x="-4.7" y="-4.1" transform="matrix(-.09497 -.9955 -.9955 .09497 11.112 279.362)" overflow="visible"/><use xlink:href="#a" width="9.4" height="8.1" x="-4.7" y="-4.1" transform="scale(-1 1) rotate(-87.857 132.566 137.878)" overflow="visible"/><use xlink:href="#a" width="9.4" height="8.1" x="-4.7" y="-4.1" transform="scale(1 -1) rotate(88.836 133.102 -120.371)" overflow="visible"/><use xlink:href="#a" width="9.4" height="8.1" x="-4.7" y="-4.1" transform="matrix(.07796 -.997 -.997 -.07796 10.749 236.822)" overflow="visible"/><use xlink:href="#a" width="9.4" height="8.1" x="-4.7" y="-4.1" transform="scale(1 -1) rotate(82.224 133.725 -104.328)" overflow="visible"/><use xlink:href="#a" width="9.4" height="8.1" x="-4.7" y="-4.1" transform="scale(1 -1) rotate(78.913 134.085 -95.492)" overflow="visible"/><use xlink:href="#a" width="9.4" height="8.1" x="-4.7" y="-4.1" transform="scale(1 -1) rotate(75.605 134.452 -86.007)" overflow="visible"/><use xlink:href="#a" width="9.4" height="8.1" x="-4.7" y="-4.1" transform="scale(1 -1) rotate(72.302 134.838 -75.792)" overflow="visible"/><use xlink:href="#a" width="9.4" height="8.1" x="-4.7" y="-4.1" transform="scale(1 -1) rotate(68.991 135.287 -64.74)" overflow="visible"/><use xlink:href="#a" width="9.4" height="8.1" x="-4.7" y="-4.1" transform="scale(1 -1) rotate(65.688 135.747 -52.717)" overflow="visible"/><use xlink:href="#a" width="9.4" height="8.1" x="-4.7" y="-4.1" transform="scale(1 -1) rotate(62.379 136.268 -39.567)" overflow="visible"/><use xlink:href="#a" width="9.4" height="8.1" x="-4.7" y="-4.1" transform="scale(1 -1) rotate(59.075 136.828 -25.102)" overflow="visible"/><use xlink:href="#a" width="9.4" height="8.1" x="-4.7" y="-4.1" transform="scale(1 -1) rotate(55.766 137.443 -9.08)" overflow="visible"/><use xlink:href="#a" width="9.4" height="8.1" x="-4.7" y="-4.1" transform="scale(1 -1) rotate(52.46 138.153 8.788)" overflow="visible"/><use xlink:href="#a" width="9.4" height="8.1" x="-4.7" y="-4.1" transform="scale(1 -1) rotate(49.156 138.924 28.873)" overflow="visible"/><use xlink:href="#a" width="9.4" height="8.1" x="-4.7" y="-4.1" transform="scale(1 -1) rotate(45.847 139.818 51.675)" overflow="visible"/><use xlink:href="#a" width="9.4" height="8.1" x="-4.7" y="-4.1" transform="scale(1 -1) rotate(42.54 140.844 77.816)" overflow="visible"/><use xlink:href="#a" width="9.4" height="8.1" x="-4.7" y="-4.1" transform="scale(1 -1) rotate(39.233 142.022 108.137)" overflow="visible"/><use xlink:href="#a" width="9.4" height="8.1" x="-4.7" y="-4.1" transform="scale(1 -1) rotate(35.923 143.429 143.828)" overflow="visible"/><use xlink:href="#a" width="9.4" height="8.1" x="-4.7" y="-4.1" transform="scale(1 -1) rotate(32.616 145.097 186.482)" overflow="visible"/><use xlink:href="#a" width="9.4" height="8.1" x="-4.7" y="-4.1" transform="scale(1 -1) rotate(29.313 147.11 238.421)" overflow="visible"/><use xlink:href="#a" width="9.4" height="8.1" x="-4.7" y="-4.1" transform="scale(1 -1) rotate(26.001 149.661 303.361)" overflow="visible"/><use xlink:href="#a" width="9.4" height="8.1" x="-4.7" y="-4.1" transform="scale(1 -1) rotate(22.698 152.902 386.712)" overflow="visible"/><use xlink:href="#a" width="9.4" height="8.1" x="-4.7" y="-4.1" transform="scale(1 -1) rotate(19.39 157.267 498.205)" overflow="visible"/><use xlink:href="#a" width="9.4" height="8.1" x="-4.7" y="-4.1" transform="scale(1 -1) rotate(16.086 163.37 654.813)" overflow="visible"/><use xlink:href="#a" width="9.4" height="8.1" x="-4.7" y="-4.1" transform="scale(1 -1) rotate(12.78 172.646 892.03)" overflow="visible"/><use xlink:href="#a" width="9.4" height="8.1" x="-4.7" y="-4.1" transform="scale(1 -1) rotate(9.468 188.378 1294.572)" overflow="visible"/><use xlink:href="#a" width="9.4" height="8.1" x="-4.7" y="-4.1" transform="scale(1 -1) rotate(6.166 220.838 2125.794)" overflow="visible"/><use xlink:href="#a" width="9.4" height="8.1" x="-4.7" y="-4.1" transform="matrix(.9988 -.04984 -.04984 -.9988 243.74 10.306)" overflow="visible"/></g></svg>